<?xml version="1.0" encoding="UTF-8" standalone="no"?>
<svg
   width="173.9879"
   height="33.696381"
   viewBox="0 0 173.9879 33.696381"
   fill="none"
   version="1.1"
   id="svg24"
   sodipodi:docname="goingup-logo-dark.svg"
   inkscape:version="1.2 (dc2aedaf03, 2022-05-15)"
   xmlns:inkscape="http://www.inkscape.org/namespaces/inkscape"
   xmlns:sodipodi="http://sodipodi.sourceforge.net/DTD/sodipodi-0.dtd"
   xmlns="http://www.w3.org/2000/svg"
   xmlns:svg="http://www.w3.org/2000/svg">
  <defs
     id="defs28" />
  <sodipodi:namedview
     id="namedview26"
     pagecolor="#ffffff"
     bordercolor="#666666"
     borderopacity="1.0"
     inkscape:showpageshadow="2"
     inkscape:pageopacity="0.0"
     inkscape:pagecheckerboard="0"
     inkscape:deskcolor="#d1d1d1"
     showgrid="false"
     inkscape:zoom="6.4705882"
     inkscape:cx="80.827273"
     inkscape:cy="15.918182"
     inkscape:window-width="1920"
     inkscape:window-height="1009"
     inkscape:window-x="-8"
     inkscape:window-y="-8"
     inkscape:window-maximized="1"
     inkscape:current-layer="svg24" />
  <path
     d="m 159.6099,25.23558 c 0,1.9678 1.596,3.5631 3.563,3.5631 1.968,0 3.564,-1.5953 3.564,-3.5631 z m -7.251,0 c 0,1.9678 1.595,3.5631 3.563,3.5631 1.968,0 3.563,-1.5953 3.563,-3.5631 z m 14.503,0 c 0,1.9678 1.595,3.5631 3.563,3.5631 1.968,0 3.563,-1.5953 3.563,-3.5631 z m -3.689,-20.4539 2.161,-2.83318 -2.161,-1.64782 -2.16,1.64782 z m -9.412,2.6969 c -1.564,1.1934 -1.865,3.4292 -0.672,4.9939 1.193,1.5648 3.429,1.8659 4.994,0.6726 z m 14.503,5.6665 c 1.565,1.1933 3.801,0.8922 4.994,-0.6726 1.193,-1.5647 0.892,-3.8005 -0.672,-4.9939 z m -1.527,12.0905 v -5.7646 h -7.127 v 5.7646 z m -7.252,0 v -4.9987 h -7.126 v 4.9987 z m 7.377,-4.9987 v 4.9987 h 7.126 v -4.9987 z m -10.174,2.7972 h 6.485 v -7.1263 h -6.485 z m 6.485,0 h 6.486 v -7.1263 h -6.486 z m 3.564,-3.5631 V 4.78168 h -7.127 v 14.6893 z m -5.724,-17.52248 -7.252,5.53008 4.322,5.6665 7.251,-5.5301 z m 11.573,5.53008 -7.252,-5.53008 -4.321,5.66648 7.251,5.5301 z m 1.402,12.7583 c 0,-2.3908 -1.938,-4.3291 -4.329,-4.3291 v 7.1263 c -1.545,0 -2.797,-1.2523 -2.797,-2.7972 z m -14.503,0 c 0,1.5449 -1.252,2.7972 -2.797,2.7972 v -7.1263 c -2.391,0 -4.329,1.9382 -4.329,4.3291 z"
     fill="#f4ce00"
     id="path2" />
  <path
     d="m 163.0559,24.02298 v -4.4063 m 0,0 h -7.245 v 4.4063 m 7.245,-4.4063 h 7.245 v 4.4063 m -7.245,-4.4063 V 4.78218 m 0,0 -7.245,5.6547 m 7.245,-5.6547 7.245,5.6547"
     stroke="#000000"
     stroke-width="1.87502"
     id="path4" />
  <circle
     cx="170.42589"
     cy="24.878281"
     r="1.0723799"
     fill="#ffffff"
     stroke="#000000"
     stroke-width="1.12501"
     id="circle6" />
  <circle
     cx="155.92389"
     cy="24.878281"
     r="1.0723799"
     fill="#ffffff"
     stroke="#000000"
     stroke-width="1.12501"
     id="circle8" />
  <circle
     cx="163.17389"
     cy="24.878281"
     r="1.0723799"
     fill="#ffffff"
     stroke="#000000"
     stroke-width="1.12501"
     id="circle10" />
  <circle
     cx="170.42589"
     cy="19.596979"
     r="1.0723799"
     fill="#ffffff"
     stroke="#000000"
     stroke-width="1.12501"
     id="circle12" />
  <circle
     cx="163.05789"
     cy="4.9042802"
     r="1.0723799"
     fill="#ffffff"
     stroke="#000000"
     stroke-width="1.12501"
     id="circle14" />
  <circle
     cx="155.6949"
     cy="10.367781"
     r="1.0723799"
     fill="#ffffff"
     stroke="#000000"
     stroke-width="1.12501"
     id="circle16" />
  <circle
     cx="170.4229"
     cy="10.367781"
     r="1.0723799"
     fill="#ffffff"
     stroke="#000000"
     stroke-width="1.12501"
     id="circle18" />
  <circle
     cx="155.92389"
     cy="19.596979"
     r="1.0723799"
     fill="#ffffff"
     stroke="#000000"
     stroke-width="1.12501"
     id="circle20" />
  <path
     d="m 22.3562,13.10418 v 12.8521 h -4.32 l -0.18,-2.808 c -1.3681,2.112 -3.6361,3.168 -6.8041,3.168 -2.16,0 -4.0801,-0.468 -5.7601,-1.404 -1.656,-0.96 -2.952,-2.352 -3.888,-4.1761 C 0.468,18.88818 0,16.68018 0,14.11218 c 0,-2.5441 0.48,-4.7281 1.44,-6.5521 0.96,-1.848 2.328,-3.264 4.104,-4.248 1.776,-0.98405 3.8761,-1.47606 6.3001,-1.47606 2.712,0 4.896,0.48001 6.5521,1.44006 1.656,0.96 2.964,2.508 3.924,4.644 l -5.7241,2.268 c -0.288,-1.176 -0.828,-2.052 -1.62,-2.628 -0.792,-0.576 -1.776,-0.864 -2.952,-0.864 -1.824,0 -3.228,0.624 -4.2121,1.872 -0.96,1.248 -1.44,3.084 -1.44,5.5081 0,4.992 1.9441,7.4881 5.8321,7.4881 1.464,0 2.64,-0.3361 3.528,-1.0081 0.912,-0.672 1.368,-1.644 1.368,-2.916 v -0.36 h -5.904 v -4.176 z M 35.268,7.59608 c 3,0 5.328,0.828 6.984,2.484 1.6801,1.632 2.5201,3.9241 2.5201,6.8761 0,2.952 -0.84,5.2561 -2.5201,6.9121 -1.656,1.632 -3.984,2.448 -6.984,2.448 -3.0001,0 -5.3401,-0.816 -7.0201,-2.448 -1.656,-1.656 -2.484,-3.9601 -2.484,-6.9121 0,-2.952 0.828,-5.2441 2.484,-6.8761 1.68,-1.656 4.02,-2.484 7.0201,-2.484 z m 0,4.356 c -1.152,0 -2.0041,0.3961 -2.5561,1.1881 -0.552,0.792 -0.828,2.064 -0.828,3.816 0,1.752 0.276,3.024 0.828,3.816 0.552,0.7921 1.4041,1.1881 2.5561,1.1881 1.152,0 2.004,-0.396 2.556,-1.1881 0.552,-0.792 0.828,-2.064 0.828,-3.816 0,-1.752 -0.276,-3.024 -0.828,-3.816 -0.552,-0.792 -1.404,-1.1881 -2.556,-1.1881 z m 16.0764,-6.084 c -1.248,0 -2.16,-0.228 -2.736,-0.684 -0.552,-0.48 -0.8281,-1.224 -0.8281,-2.23205 0,-1.03201 0.2761,-1.77602 0.8281,-2.23202 C 49.1844,0.24 50.0964,0 51.3444,0 c 1.248,0 2.148,0.24 2.7,0.72001 0.576,0.456 0.864,1.20001 0.864,2.23202 0,1.00805 -0.288,1.75205 -0.864,2.23205 -0.552,0.456 -1.452,0.684 -2.7,0.684 z m 3.06,20.0882 h -6.12 V 7.95608 h 6.12 z M 70.5692,7.59608 c 1.896,0 3.408,0.552 4.536,1.656 1.128,1.104 1.692,2.676 1.692,4.7161 v 11.9881 h -6.12 v -10.2961 c 0,-1.224 -0.228,-2.088 -0.684,-2.592 -0.4321,-0.528 -1.0561,-0.792 -1.8721,-0.792 -0.96,0 -1.74,0.348 -2.34,1.044 -0.6,0.672 -0.9,1.716 -0.9,3.132 v 9.5041 H 58.761 V 7.95608 h 5.4721 l 0.18,3.456 c 0.576,-1.272 1.392,-2.22 2.448,-2.844 1.056,-0.648 2.292,-0.972 3.7081,-0.972 z m 21.9287,14.3642 c 2.088,0 3.696,0.456 4.824,1.368 1.152,0.912 1.728,2.256 1.728,4.032 0,2.04 -0.912,3.6001 -2.736,4.6801 -1.8,1.104 -4.26,1.656 -7.38,1.656 -3.1444,0 -5.4724,-0.372 -6.9844,-1.116 -1.488,-0.744 -2.232,-1.788 -2.232,-3.1321 0,-0.792 0.276,-1.488 0.828,-2.088 0.552,-0.6 1.392,-1.032 2.52,-1.296 -1.848,-0.792 -2.772,-2.04 -2.772,-3.744 0,-0.84 0.264,-1.5841 0.792,-2.2321 0.528,-0.648 1.248,-1.128 2.16,-1.44 -1.968,-1.056 -2.952,-2.7 -2.952,-4.932 0,-1.9441 0.768,-3.4441 2.304,-4.5001 1.536,-1.08 3.696,-1.62 6.4804,-1.62 1.296,0 2.496,0.132 3.6,0.396 0.24,-1.44 0.78,-2.616 1.62,-3.528 0.84,-0.912 2.004,-1.368 3.492,-1.368 l 0.576,0.036 0.684,4.068 c -0.48,-0.048 -0.816,-0.072 -1.008,-0.072 -0.816,0 -1.5,0.144 -2.052,0.432 -0.528,0.288 -0.912,0.684 -1.152,1.188 2.016,1.056 3.024,2.712 3.024,4.9681 0,1.944 -0.768,3.444 -2.304,4.5 -1.536,1.056 -3.696,1.584 -6.48,1.584 -1.296,0 -2.4484,-0.108 -3.4564,-0.324 -0.744,0.192 -1.116,0.612 -1.116,1.26 0,0.8161 0.624,1.2241 1.872,1.2241 z m -3.42,-10.8722 c -0.792,0 -1.4403,0.24 -1.9443,0.72 -0.4801,0.4801 -0.7201,1.1161 -0.7201,1.9081 0,0.792 0.24,1.428 0.7201,1.908 0.504,0.456 1.1523,0.684 1.9443,0.684 0.792,0 1.428,-0.228 1.908,-0.684 0.504,-0.48 0.756,-1.116 0.756,-1.908 0,-0.792 -0.252,-1.428 -0.756,-1.9081 -0.48,-0.48 -1.116,-0.72 -1.908,-0.72 z m 0.288,18.6482 c 1.584,0 2.784,-0.168 3.6,-0.504 0.84,-0.312 1.26,-0.732 1.26,-1.26 0,-0.384 -0.168,-0.672 -0.504,-0.864 -0.336,-0.192 -0.9,-0.288 -1.692,-0.288 h -4.9323 c -0.9841,0 -1.6921,0.096 -2.1241,0.288 -0.408,0.216 -0.612,0.54 -0.612,0.972 0,1.104 1.668,1.656 5.0044,1.656 z m 34.215,-27.54026 v 13.53616 c 0,3.552 -0.96,6.2041 -2.88,7.9561 -1.896,1.752 -4.764,2.628 -8.604,2.628 -3.84,0 -6.721,-0.876 -8.641,-2.628 -1.896,-1.752 -2.844,-4.4041 -2.844,-7.9561 V 2.19602 h 8.425 v 14.18416 c 0,1.2 0.264,2.112 0.792,2.736 0.528,0.6 1.284,0.9 2.268,0.9 1.008,0 1.776,-0.3 2.304,-0.9 0.528,-0.624 0.792,-1.536 0.792,-2.736 V 2.19602 Z m 15.729,0 c 2.136,0 3.948,0.32401 5.436,0.97206 1.488,0.648 2.616,1.596 3.384,2.844 0.768,1.248 1.152,2.772 1.152,4.572 0,1.8001 -0.384,3.3241 -1.152,4.5721 -0.768,1.248 -1.896,2.196 -3.384,2.844 -1.488,0.648 -3.3,0.972 -5.436,0.972 h -4.212 v 6.9841 h -8.388 V 2.19602 Z m -1.368,10.83616 c 0.912,0 1.632,-0.192 2.16,-0.576 0.528,-0.408 0.792,-1.0321 0.792,-1.8721 0,-0.84 -0.264,-1.452 -0.792,-1.836 -0.528,-0.408 -1.248,-0.612 -2.16,-0.612 h -2.844 v 4.8961 z"
     fill="#ffffff"
     id="path22" />
</svg>
