<svg width="497" height="121" viewBox="0 0 497 121" fill="none" xmlns="http://www.w3.org/2000/svg">
<path d="M467.803 86.0766L467.803 70.7045M467.803 70.7045L450.509 70.7045C449.381 70.7045 448.467 71.619 448.467 72.7471L448.467 86.0766M467.803 70.7045L485.097 70.7045C486.225 70.7045 487.14 71.619 487.14 72.7471L487.14 86.0766M467.803 70.7045L467.803 31.5337M467.803 31.5337L448.467 46.2805M467.803 31.5337L487.14 46.2805" stroke="#F4CE00" stroke-width="19.003" stroke-linecap="round"/>
<path d="M467.487 82.8419L467.487 71.0919M467.487 71.0919L448.167 71.0919L448.167 82.8419M467.487 71.0919L486.806 71.0919L486.806 82.8419M467.487 71.0919L467.487 31.5337M467.487 31.5337L448.167 46.6128M467.487 31.5337L486.806 46.6128" stroke="black" stroke-width="5"/>
<circle cx="487.14" cy="85.1233" r="2.85965" fill="white" stroke="black" stroke-width="3"/>
<circle cx="448.467" cy="85.1233" r="2.85965" fill="white" stroke="black" stroke-width="3"/>
<circle cx="467.803" cy="85.1233" r="2.85965" fill="white" stroke="black" stroke-width="3"/>
<circle cx="487.14" cy="71.0379" r="2.85965" fill="white" stroke="black" stroke-width="3"/>
<circle cx="467.496" cy="31.8597" r="2.85965" fill="white" stroke="black" stroke-width="3"/>
<circle cx="447.859" cy="46.4285" r="2.85965" fill="white" stroke="black" stroke-width="3"/>
<circle cx="487.132" cy="46.4285" r="2.85965" fill="white" stroke="black" stroke-width="3"/>
<circle cx="448.467" cy="71.0379" r="2.85965" fill="white" stroke="black" stroke-width="3"/>
<path d="M62.1379 89.96C56.5059 89.96 51.4819 88.712 47.0659 86.216C42.7139 83.72 39.3219 80.04 36.8899 75.176C34.4579 70.312 33.2419 64.392 33.2419 57.416C33.2419 50.568 34.5219 44.712 37.0819 39.848C39.6419 34.984 43.2899 31.24 48.0259 28.616C52.8259 25.992 58.4579 24.68 64.9219 24.68C72.0899 24.68 77.8819 25.992 82.2979 28.616C86.7139 31.176 90.1379 35.272 92.5699 40.904L77.3059 46.952C76.4739 43.688 75.0019 41.32 72.8899 39.848C70.7779 38.376 68.1539 37.64 65.0179 37.64C61.8819 37.64 59.1939 38.408 56.9539 39.944C54.7139 41.416 53.0179 43.624 51.8659 46.568C50.7139 49.448 50.1379 53.032 50.1379 57.32C50.1379 61.8 50.7139 65.544 51.8659 68.552C53.0819 71.56 54.8419 73.8 57.1459 75.272C59.5139 76.68 62.4259 77.384 65.8819 77.384C67.7379 77.384 69.4339 77.16 70.9699 76.712C72.5059 76.264 73.8499 75.624 75.0019 74.792C76.1539 73.896 77.0499 72.808 77.6899 71.528C78.3299 70.184 78.6499 68.616 78.6499 66.824V65.864H64.1539V54.824H92.6659V89H81.4339L80.1859 74.12L82.8739 76.424C81.5299 80.776 79.0979 84.136 75.5779 86.504C72.1219 88.808 67.6419 89.96 62.1379 89.96ZM127.001 40.04C132.057 40.04 136.473 41.032 140.249 43.016C144.089 44.936 147.065 47.784 149.177 51.56C151.353 55.272 152.441 59.752 152.441 65C152.441 70.248 151.353 74.76 149.177 78.536C147.065 82.248 144.089 85.096 140.249 87.08C136.473 89 132.057 89.96 127.001 89.96C122.073 89.96 117.689 89 113.849 87.08C110.009 85.096 107.001 82.248 104.825 78.536C102.713 74.76 101.657 70.248 101.657 65C101.657 59.752 102.713 55.272 104.825 51.56C107.001 47.784 110.009 44.936 113.849 43.016C117.689 41.032 122.073 40.04 127.001 40.04ZM127.001 51.656C125.145 51.656 123.545 52.104 122.201 53C120.857 53.896 119.833 55.336 119.129 57.32C118.425 59.304 118.073 61.864 118.073 65C118.073 68.136 118.425 70.696 119.129 72.68C119.833 74.6 120.857 76.04 122.201 77C123.545 77.896 125.145 78.344 127.001 78.344C128.921 78.344 130.553 77.896 131.897 77C133.241 76.04 134.265 74.6 134.969 72.68C135.673 70.696 136.025 68.136 136.025 65C136.025 61.864 135.673 59.304 134.969 57.32C134.265 55.336 133.241 53.896 131.897 53C130.553 52.104 128.921 51.656 127.001 51.656ZM169.782 35.432C166.454 35.432 164.022 34.824 162.486 33.608C161.014 32.328 160.278 30.344 160.278 27.656C160.278 24.904 161.014 22.92 162.486 21.704C164.022 20.424 166.454 19.784 169.782 19.784C173.046 19.784 175.446 20.424 176.982 21.704C178.518 22.92 179.286 24.904 179.286 27.656C179.286 30.344 178.518 32.328 176.982 33.608C175.446 34.824 173.046 35.432 169.782 35.432ZM177.942 41V89H161.622V41H177.942ZM189.559 89V41H204.151L205.015 57.512L203.191 55.688C203.831 52.232 204.951 49.352 206.551 47.048C208.215 44.744 210.263 43.016 212.695 41.864C215.191 40.648 217.975 40.04 221.047 40.04C224.375 40.04 227.255 40.68 229.687 41.96C232.183 43.24 234.135 45.128 235.543 47.624C236.951 50.12 237.655 53.256 237.655 57.032V89H221.335V61.352C221.335 58.024 220.695 55.72 219.415 54.44C218.135 53.16 216.503 52.52 214.519 52.52C212.983 52.52 211.543 52.904 210.199 53.672C208.855 54.376 207.799 55.528 207.031 57.128C206.263 58.728 205.879 60.872 205.879 63.56V89H189.559ZM295.554 28.136L296.898 39.08C296.514 38.952 296.13 38.888 295.746 38.888C295.362 38.824 294.978 38.792 294.594 38.792C291.778 38.792 289.666 39.496 288.258 40.904C286.914 42.248 286.242 43.944 286.242 45.992L280.482 43.88C280.482 41.256 280.962 38.728 281.922 36.296C282.882 33.864 284.354 31.88 286.338 30.344C288.386 28.808 290.946 28.04 294.018 28.04C294.21 28.04 294.434 28.04 294.69 28.04C295.01 28.04 295.298 28.072 295.554 28.136ZM279.042 78.344C284.61 78.344 288.866 79.528 291.81 81.896C294.818 84.2 296.322 87.528 296.322 91.88C296.322 95.848 295.234 99.144 293.058 101.768C290.882 104.392 287.81 106.344 283.842 107.624C279.938 108.968 275.298 109.64 269.922 109.64C261.218 109.64 254.946 108.552 251.106 106.376C247.266 104.2 245.346 101.256 245.346 97.544C245.346 94.856 246.434 92.68 248.61 91.016C250.786 89.352 254.402 88.456 259.458 88.328L259.074 89.864C255.17 89.352 252.258 88.2 250.338 86.408C248.418 84.616 247.458 82.184 247.458 79.112C247.458 76.04 248.674 73.544 251.106 71.624C253.538 69.704 256.77 68.648 260.802 68.456L266.754 71.24H265.218C262.722 71.368 260.962 71.784 259.938 72.488C258.914 73.192 258.402 74.056 258.402 75.08C258.402 76.168 258.85 77 259.746 77.576C260.642 78.088 261.986 78.344 263.778 78.344H279.042ZM270.018 99.08C273.09 99.08 275.618 98.856 277.602 98.408C279.65 98.024 281.186 97.448 282.21 96.68C283.234 95.976 283.746 95.144 283.746 94.184C283.746 93.224 283.394 92.456 282.69 91.88C281.986 91.368 280.706 91.112 278.85 91.112H261.666C260.45 91.112 259.458 91.432 258.69 92.072C257.986 92.712 257.634 93.512 257.634 94.472C257.634 95.944 258.722 97.064 260.898 97.832C263.074 98.664 266.114 99.08 270.018 99.08ZM270.594 40.04C275.458 40.04 279.618 40.68 283.074 41.96C286.53 43.24 289.154 45.096 290.946 47.528C292.802 49.896 293.73 52.84 293.73 56.36C293.73 59.816 292.802 62.76 290.946 65.192C289.154 67.624 286.53 69.48 283.074 70.76C279.618 71.976 275.458 72.584 270.594 72.584C262.978 72.584 257.186 71.176 253.218 68.36C249.314 65.544 247.362 61.544 247.362 56.36C247.362 52.84 248.258 49.896 250.05 47.528C251.906 45.096 254.562 43.24 258.018 41.96C261.474 40.68 265.666 40.04 270.594 40.04ZM270.594 49.352C268.482 49.352 266.754 49.96 265.41 51.176C264.13 52.392 263.49 54.12 263.49 56.36C263.49 58.536 264.13 60.232 265.41 61.448C266.754 62.664 268.482 63.272 270.594 63.272C272.642 63.272 274.338 62.664 275.682 61.448C277.026 60.232 277.698 58.536 277.698 56.36C277.698 54.12 277.026 52.392 275.682 51.176C274.338 49.96 272.642 49.352 270.594 49.352ZM361.753 25.64V61.736C361.753 71.208 359.193 78.28 354.073 82.952C349.017 87.624 341.369 89.96 331.129 89.96C320.889 89.96 313.209 87.624 308.089 82.952C303.033 78.28 300.505 71.208 300.505 61.736V25.64H322.969V63.464C322.969 66.664 323.673 69.096 325.081 70.76C326.489 72.36 328.505 73.16 331.129 73.16C333.817 73.16 335.865 72.36 337.273 70.76C338.681 69.096 339.385 66.664 339.385 63.464V25.64H361.753ZM403.697 25.64C409.393 25.64 414.225 26.504 418.193 28.232C422.161 29.96 425.169 32.488 427.217 35.816C429.265 39.144 430.289 43.208 430.289 48.008C430.289 52.808 429.265 56.872 427.217 60.2C425.169 63.528 422.161 66.056 418.193 67.784C414.225 69.512 409.393 70.376 403.697 70.376H392.465V89H370.097V25.64H403.697ZM400.049 54.536C402.481 54.536 404.401 54.024 405.809 53C407.217 51.912 407.921 50.248 407.921 48.008C407.921 45.768 407.217 44.136 405.809 43.112C404.401 42.024 402.481 41.48 400.049 41.48H392.465V54.536H400.049Z" fill="black"/>
</svg>
