<svg width="368" height="484" viewBox="0 0 368 484" fill="none" xmlns="http://www.w3.org/2000/svg">
<path d="M183.928 422.756L183.928 325.057M183.928 325.057L74.0151 325.057C66.8454 325.057 61.0332 330.87 61.0332 338.039L61.0332 422.756M183.928 325.057L293.842 325.057C301.012 325.057 306.824 330.87 306.824 338.039L306.824 422.756M183.928 325.057L183.928 76.1055M183.928 76.1055L61.0332 169.829M183.928 76.1055L306.824 169.829" stroke="#F4CE00" stroke-width="120.775" stroke-linecap="round"/>
<path d="M181.917 402.195L181.917 327.518M181.917 327.518L59.1289 327.518L59.1289 402.195M181.917 327.518L304.704 327.518L304.704 402.195M181.917 327.518L181.917 76.1035M181.917 76.1035L59.1289 171.94M181.917 76.1035L304.704 171.94" stroke="black" stroke-width="31.7777"/>
<circle cx="306.825" cy="416.696" r="18.1746" fill="white" stroke="black" stroke-width="19.0666"/>
<circle cx="61.034" cy="416.696" r="18.1746" fill="white" stroke="black" stroke-width="19.0666"/>
<circle cx="183.931" cy="416.696" r="18.1746" fill="white" stroke="black" stroke-width="19.0666"/>
<circle cx="306.825" cy="327.173" r="18.1746" fill="white" stroke="black" stroke-width="19.0666"/>
<circle cx="181.975" cy="78.1747" r="18.1746" fill="white" stroke="black" stroke-width="19.0666"/>
<circle cx="57.1746" cy="170.768" r="18.1746" fill="white" stroke="black" stroke-width="19.0666"/>
<circle cx="306.776" cy="170.768" r="18.1746" fill="white" stroke="black" stroke-width="19.0666"/>
<circle cx="61.034" cy="327.175" r="18.1746" fill="white" stroke="black" stroke-width="19.0666"/>
</svg>
