<?xml version="1.0" encoding="UTF-8" standalone="no"?>
<svg
   viewBox="0 0 477.5133 428.08999"
   version="1.1"
   id="svg56"
   sodipodi:docname="connection-lost.svg"
   width="477.51331"
   height="428.09"
   inkscape:version="1.2 (dc2aedaf03, 2022-05-15)"
   xmlns:inkscape="http://www.inkscape.org/namespaces/inkscape"
   xmlns:sodipodi="http://sodipodi.sourceforge.net/DTD/sodipodi-0.dtd"
   xmlns="http://www.w3.org/2000/svg"
   xmlns:svg="http://www.w3.org/2000/svg">
  <defs
     id="defs60" />
  <sodipodi:namedview
     id="namedview58"
     pagecolor="#ffffff"
     bordercolor="#666666"
     borderopacity="1.0"
     inkscape:showpageshadow="2"
     inkscape:pageopacity="0.0"
     inkscape:pagecheckerboard="true"
     inkscape:deskcolor="#d1d1d1"
     showgrid="false"
     inkscape:zoom="1.6130288"
     inkscape:cx="238.68142"
     inkscape:cy="19.218504"
     inkscape:window-width="1920"
     inkscape:window-height="1009"
     inkscape:window-x="-8"
     inkscape:window-y="-8"
     inkscape:window-maximized="1"
     inkscape:current-layer="g52" />
  <g
     data-name="Layer 1"
     id="g52"
     transform="translate(0.00329094,-85.850003)">
    <circle
       cx="175.39999"
       cy="375.12"
       r="63.330002"
       fill="#ffcd52"
       id="circle2" />
    <path
       fill="#f46534"
       d="m 173.69,224.46 a 47.93,47.93 0 0 1 -6.11,1.06 c -2,0.24 -4.09,0.41 -6.13,0.5 -2.04,0.09 -4.1,0.12 -6.16,0.07 a 49.49,49.49 0 0 1 -6.17,-0.5 47.47,47.47 0 0 1 6.1,-1.06 q 3.06,-0.36 6.14,-0.5 c 2,-0.1 4.09,-0.11 6.15,-0.06 a 47.93,47.93 0 0 1 6.18,0.49 z"
       id="path4" />
    <path
       fill="#f46534"
       d="m 162,237.31 a 49.72,49.72 0 0 1 -1.05,-6.11 c -0.24,-2 -0.42,-4.08 -0.51,-6.13 -0.09,-2.05 -0.11,-4.1 -0.06,-6.15 a 47.81,47.81 0 0 1 0.5,-6.18 47.93,47.93 0 0 1 1.06,6.11 q 0.36,3.06 0.5,6.13 0.14,3.07 0.06,6.15 a 47.81,47.81 0 0 1 -0.5,6.18 z m -25.32,-7.92 a 36.27,36.27 0 0 1 1.09,5.29 c 0.25,1.77 0.44,3.54 0.54,5.32 0.1,1.78 0.14,3.56 0.1,5.35 a 36.29,36.29 0 0 1 -0.46,5.38 37.67,37.67 0 0 1 -1.1,-5.29 c -0.25,-1.77 -0.43,-3.54 -0.53,-5.32 -0.1,-1.78 -0.14,-3.56 -0.1,-5.35 a 36.29,36.29 0 0 1 0.46,-5.38 z"
       id="path6" />
    <path
       fill="#f46534"
       d="m 148,239.42 a 38,38 0 0 1 -5.29,1.1 c -1.77,0.25 -3.55,0.43 -5.33,0.54 -1.78,0.11 -3.56,0.14 -5.35,0.1 a 36.41,36.41 0 0 1 -5.38,-0.46 36.3,36.3 0 0 1 5.29,-1.1 c 1.77,-0.25 3.55,-0.44 5.32,-0.54 1.77,-0.1 3.57,-0.13 5.36,-0.09 a 37.79,37.79 0 0 1 5.38,0.45 z m 298.33,68.8 a 47.78,47.78 0 0 1 -6.1,1.06 q -3.06,0.36 -6.14,0.51 -3.08,0.15 -6.15,0.06 a 49.8,49.8 0 0 1 -6.18,-0.5 47.93,47.93 0 0 1 6.11,-1.06 c 2,-0.24 4.09,-0.41 6.13,-0.5 2.04,-0.09 4.1,-0.11 6.16,-0.06 a 49.47,49.47 0 0 1 6.17,0.49 z"
       id="path8" />
    <path
       fill="#f46534"
       d="m 434.61,321.07 a 47.62,47.62 0 0 1 -1.06,-6.11 q -0.36,-3.06 -0.5,-6.13 c -0.1,-2 -0.11,-4.1 -0.06,-6.15 a 46.23,46.23 0 0 1 0.5,-6.18 47.93,47.93 0 0 1 1.06,6.11 q 0.36,3.06 0.5,6.13 0.14,3.07 0.06,6.15 a 49.49,49.49 0 0 1 -0.5,6.18 z m -25.29,-7.92 a 36.3,36.3 0 0 1 1.1,5.29 c 0.25,1.77 0.44,3.54 0.54,5.32 0.1,1.78 0.14,3.56 0.1,5.35 a 36.54,36.54 0 0 1 -0.46,5.39 36.58,36.58 0 0 1 -1.1,-5.29 c -0.25,-1.78 -0.43,-3.55 -0.54,-5.33 -0.11,-1.78 -0.13,-3.56 -0.09,-5.35 a 37.67,37.67 0 0 1 0.45,-5.38 z"
       id="path10" />
    <path
       fill="#f46534"
       d="m 420.64,323.18 a 36.58,36.58 0 0 1 -5.29,1.1 c -1.77,0.25 -3.55,0.43 -5.33,0.54 -1.78,0.11 -3.56,0.14 -5.35,0.1 a 36.29,36.29 0 0 1 -5.38,-0.46 36.3,36.3 0 0 1 5.29,-1.1 c 1.77,-0.25 3.54,-0.44 5.32,-0.54 1.78,-0.1 3.57,-0.13 5.35,-0.09 a 37.93,37.93 0 0 1 5.39,0.45 z m -276.9,164.49 a 47.93,47.93 0 0 1 -6.11,1.06 q -3.06,0.36 -6.13,0.5 c -2.05,0.1 -4.1,0.11 -6.15,0.06 a 47.81,47.81 0 0 1 -6.18,-0.5 47.93,47.93 0 0 1 6.11,-1.06 q 3.06,-0.36 6.13,-0.5 3.07,-0.14 6.15,-0.06 a 49.65,49.65 0 0 1 6.18,0.5 z"
       id="path12" />
    <path
       fill="#f46534"
       d="m 132,500.51 a 47.47,47.47 0 0 1 -1.06,-6.1 c -0.24,-2 -0.41,-4.09 -0.5,-6.13 -0.09,-2.04 -0.12,-4.1 -0.07,-6.16 a 49.49,49.49 0 0 1 0.5,-6.17 47.47,47.47 0 0 1 1.06,6.1 c 0.24,2 0.42,4.09 0.5,6.13 0.08,2.04 0.12,4.1 0.06,6.16 a 47.63,47.63 0 0 1 -0.49,6.17 z m -25.27,-7.92 a 37.67,37.67 0 0 1 1.1,5.29 c 0.25,1.77 0.43,3.55 0.54,5.32 0.11,1.77 0.14,3.57 0.1,5.36 a 36.41,36.41 0 0 1 -0.46,5.38 35,35 0 0 1 -1.1,-5.29 c -0.25,-1.77 -0.44,-3.55 -0.54,-5.33 -0.1,-1.78 -0.14,-3.56 -0.1,-5.35 a 36.41,36.41 0 0 1 0.46,-5.38 z"
       id="path14" />
    <path
       fill="#f46534"
       d="m 118,502.63 a 36.27,36.27 0 0 1 -5.29,1.09 c -1.77,0.25 -3.54,0.44 -5.32,0.54 -1.78,0.1 -3.56,0.14 -5.35,0.1 a 36.54,36.54 0 0 1 -5.39,-0.46 38,38 0 0 1 5.29,-1.1 c 1.78,-0.25 3.55,-0.43 5.33,-0.53 1.78,-0.1 3.56,-0.14 5.35,-0.1 a 36.29,36.29 0 0 1 5.38,0.46 z"
       id="path16" />
    <path
       fill="#d86c1d"
       d="m 147.77,368.61 c 0,4.7 -4.81,8.52 -9.52,8.52 a 8.52,8.52 0 0 1 -8.52,-8.52 c 0,-4.71 4.81,-8.52 9.52,-8.52 a 8.51,8.51 0 0 1 8.52,8.52 z m 22.92,-30.54 c 0,3.34 1.29,8.06 -2.06,8.06 -3.35,0 -10.06,-4.72 -10.06,-8.06 a 6.06,6.06 0 1 1 12.12,0 z m 29.64,4.86 c 0,3.91 -5.17,5.08 -9.08,5.08 -3.91,0 -5.08,-1.17 -5.08,-5.08 a 7.08,7.08 0 0 1 14.16,0 z m -11.85,37.6 c 0,6.59 -8.34,11.93 -14.92,11.93 a 11.93,11.93 0 0 1 -11.93,-11.93 c 0,-6.58 11.34,-9.92 17.93,-9.92 6.59,0 8.92,3.39 8.92,9.92 z m -47.23,-43.72 c 5.57,0 8.08,-7.52 8.08,-13.08 a 10,10 0 0 0 -1.67,-5.55 63.54,63.54 0 0 0 -16.46,11.6 c 1.8,2.44 6.8,7.03 10.05,7.03 z m 35.8,73.68 c 0,4.5 0.35,7.16 -4.16,7.16 a 8.16,8.16 0 0 1 -8.16,-8.16 c 0,-4.51 -0.35,-7.16 4.16,-7.16 a 8.16,8.16 0 0 1 8.16,8.16 z m 50.4,-11.64 c 0,6.43 -9.21,16.64 -15.64,16.64 a 11.64,11.64 0 0 1 -11.64,-11.64 c 0,-6.43 9.21,-16.64 15.64,-16.64 a 11.64,11.64 0 0 1 11.64,11.64 z m -14.64,-29.4 c 0,2.38 -4.93,4.32 -7.32,4.32 -2.39,0 -1.32,-1.94 -1.32,-4.32 a 4.32,4.32 0 1 1 8.64,0 z m 15.81,-28.63 a 63.46,63.46 0 0 0 -18.86,-18.88 c -0.81,1.79 1.73,8.77 1.73,10.87 0,7.88 3.39,9.28 11.28,9.28 a 14.09,14.09 0 0 0 5.85,-1.27 z m -99.49,70.07 c -2.07,0 -6,-3.6 -7.87,-2.88 A 63.72,63.72 0 0 0 142,429 a 15.9,15.9 0 0 0 1.17,-6 c 0.04,-8.91 -5.17,-12.11 -14.04,-12.11 z m 75.76,20.28 c -1.38,-1.22 -5.82,-2.21 -7.8,-2.21 -4.05,0 -4.74,3.34 -5.12,7.29 a 62.9,62.9 0 0 0 12.92,-5.08 z"
       id="path18" />
    <path
       fill="#fda01f"
       d="m 467,176.73 c -17.82,20.78 -35.83,41.38 -53.78,62 -17.95,20.62 -36,41.21 -54.05,61.79 l -54.3,61.57 -54.5,61.4 -1.28,-5.34 a 3.31,3.31 0 0 1 1.92,4.29 3.08,3.08 0 0 1 -0.42,0.78 90.85,90.85 0 0 1 -56.38,35.93 99.29,99.29 0 0 1 -17,1.6 90.49,90.49 0 0 1 -87.57,-68.66 88.57,88.57 0 0 1 -2.46,-16.9 c -0.07,-1.42 -0.07,-2.85 -0.11,-4.27 a 38.79,38.79 0 0 1 0.18,-4.43 65.87,65.87 0 0 1 1.38,-8.49 120.51,120.51 0 0 1 12.47,-31.36 125.36,125.36 0 0 1 20.39,-26.74 L 145,276.74 q 23.44,-23.14 47,-46.16 c 15.67,-15.4 31.47,-30.67 47.23,-46 l 23.64,-22.95 23.75,-22.85 -22.86,23.73 -23,23.65 c -15.32,15.75 -30.59,31.54 -46,47.21 -15.41,15.67 -30.74,31.4 -46.17,47 l -23.1,23.47 a 124.36,124.36 0 0 0 -19.16,25.73 114.35,114.35 0 0 0 -11.45,29.83 58,58 0 0 0 -1.23,7.71 32,32 0 0 0 -0.11,3.8 c 0,1.32 0.06,2.64 0.13,4 a 83.77,83.77 0 0 0 128.5,66 84.75,84.75 0 0 0 23,-21.52 l 1.5,5.08 a 3.33,3.33 0 0 1 -1.89,-4.31 3.64,3.64 0 0 1 0.63,-1 l 55.06,-60.89 55.26,-60.72 c 18.48,-20.18 36.91,-40.4 55.51,-60.48 18.6,-20.08 37.03,-40.36 55.76,-60.34 z"
       id="path20" />
    <path
       fill="#fda01f"
       d="m 184.65,285.31 85.44,-83.08 -80.42,88 a 3.5036338,3.5036338 0 1 1 -5.17,-4.73 z m 55.96,14.83 93.61,-98.37 -88.42,103.06 a 3.5,3.5 0 1 1 -5.31,-4.56 z M 1,354.19 94.61,255.82 6.16,358.88 A 3.5034269,3.5034269 0 0 1 0.84,354.32 Z M 308.58,184 l 47.35,-47.17 -42.15,51.86 a 3.5046398,3.5046398 0 1 1 -5.44,-4.42 2.1,2.1 0 0 1 0.24,-0.27 z m -50.7,162.23 47.35,-47.17 -42.15,51.87 a 3.5046398,3.5046398 0 0 1 -5.44,-4.42 3.22,3.22 0 0 1 0.24,-0.28 z M 213.76,155.39 261.1,108.22 219,160.08 a 3.5046398,3.5046398 0 1 1 -5.44,-4.42 3.2,3.2 0 0 1 0.2,-0.27 z m 62.18,327.61 81.29,-82.33 -76.16,87.1 a 3.5008927,3.5008927 0 1 1 -5.27,-4.61 z M 315.26,271.78 452.91,123.11 320.48,276.44 a 3.5,3.5 0 1 1 -5.3,-4.57 0.34,0.34 0 0 1 0.08,-0.09 z"
       id="path22" />
    <circle
       cx="275.92999"
       cy="165.92999"
       r="2.8800001"
       fill="none"
       stroke="#d86c1d"
       stroke-linecap="round"
       stroke-linejoin="round"
       id="circle24" />
    <circle
       cx="84.629997"
       cy="235.67"
       r="2.8800001"
       fill="none"
       stroke="#d86c1d"
       stroke-linecap="round"
       stroke-linejoin="round"
       id="circle26" />
    <circle
       cx="226"
       cy="280.35001"
       r="2.6300001"
       fill="#d86c1d"
       id="circle28" />
    <circle
       cx="175.39999"
       cy="161.64999"
       r="2.6300001"
       fill="#d86c1d"
       id="circle30" />
    <circle
       cx="474.63"
       cy="124.93"
       r="2.8800001"
       fill="#d86c1d"
       id="circle32" />
    <circle
       cx="378.59"
       cy="363.39001"
       r="2.8800001"
       fill="#d86c1d"
       id="circle34" />
    <circle
       cx="364.45999"
       cy="255.96001"
       r="2.8800001"
       fill="none"
       stroke="#d86c1d"
       stroke-linecap="round"
       stroke-linejoin="round"
       id="circle36" />
    <circle
       cx="236.78999"
       cy="460.10999"
       r="2.8800001"
       fill="none"
       stroke="#d86c1d"
       stroke-linecap="round"
       stroke-linejoin="round"
       id="circle38" />
    <circle
       cx="399.29001"
       cy="280.35001"
       r="2.8800001"
       fill="none"
       stroke="#d86c1d"
       stroke-linecap="round"
       stroke-linejoin="round"
       id="circle40" />
    <circle
       cx="47.939999"
       cy="420.98001"
       r="2.8800001"
       fill="none"
       stroke="#d86c1d"
       stroke-linecap="round"
       stroke-linejoin="round"
       id="circle42" />
    <circle
       cx="270.09"
       cy="370.60999"
       r="2.8800001"
       fill="none"
       stroke="#d86c1d"
       stroke-linecap="round"
       stroke-linejoin="round"
       id="circle44" />
    <circle
       cx="393.29001"
       cy="112.33"
       r="2.8800001"
       fill="#d86c1d"
       id="circle46" />
    <circle
       cx="300.04999"
       cy="89.230003"
       r="2.8800001"
       fill="none"
       stroke="#d86c1d"
       stroke-linecap="round"
       stroke-linejoin="round"
       id="circle48" />
  </g>
</svg>
