<?xml version="1.0" encoding="UTF-8" standalone="no"?>
<svg
   data-name="Layer 1"
   viewBox="0 0 487.80829 310.45053"
   version="1.1"
   id="svg50"
   sodipodi:docname="empty-box.svg"
   width="487.80829"
   height="310.45053"
   inkscape:version="1.2 (dc2aedaf03, 2022-05-15)"
   xmlns:inkscape="http://www.inkscape.org/namespaces/inkscape"
   xmlns:sodipodi="http://sodipodi.sourceforge.net/DTD/sodipodi-0.dtd"
   xmlns="http://www.w3.org/2000/svg"
   xmlns:svg="http://www.w3.org/2000/svg">
  <defs
     id="defs54" />
  <sodipodi:namedview
     id="namedview52"
     pagecolor="#ffffff"
     bordercolor="#666666"
     borderopacity="1.0"
     inkscape:showpageshadow="2"
     inkscape:pageopacity="0.0"
     inkscape:pagecheckerboard="false"
     inkscape:deskcolor="#d1d1d1"
     showgrid="false"
     inkscape:zoom="1.6191406"
     inkscape:cx="242.10374"
     inkscape:cy="155.63812"
     inkscape:window-width="1920"
     inkscape:window-height="1009"
     inkscape:window-x="-8"
     inkscape:window-y="-8"
     inkscape:window-maximized="1"
     inkscape:current-layer="svg50" />
  <path
     fill="#dbe8ec"
     d="M 487.8083,119.97074 V 101.77958 A 13.07945,13.07945 0 0 0 474.72885,88.70013 h -46.166 A 13.07945,13.07945 0 0 1 415.48339,75.62068 V 57.42951 a 13.07945,13.07945 0 0 1 13.07946,-13.07945 h 1.45764 A 13.07945,13.07945 0 0 0 443.09994,31.27061 V 13.07945 A 13.07945,13.07945 0 0 0 430.02049,0 H 88.11333 A 13.07945,13.07945 0 0 0 75.03388,13.07945 v 18.19116 a 13.07945,13.07945 0 0 0 13.07945,13.07945 v 0 a 13.07945,13.07945 0 0 1 13.07945,13.07945 V 75.62068 A 13.07945,13.07945 0 0 1 88.11333,88.70013 H 37.53395 A 13.07945,13.07945 0 0 0 24.4545,101.77958 v 18.19116 a 13.07945,13.07945 0 0 0 13.07945,13.07945 h 19.84658 a 13.07945,13.07945 0 0 1 13.07945,13.07946 v 18.19124 a 13.07945,13.07945 0 0 1 -13.07945,13.07946 h -0.048 A 13.07945,13.07945 0 0 0 44.25315,190.4798 v 18.19107 a 13.07945,13.07945 0 0 0 13.07945,13.07946 h 2.87139 a 13.07945,13.07945 0 0 1 13.07945,13.07945 v 18.19125 A 13.07945,13.07945 0 0 1 60.20399,266.10048 H 13.07945 A 13.07945,13.07945 0 0 0 0,279.17993 v 18.19116 a 13.07945,13.07945 0 0 0 13.07945,13.07945 h 423.963 a 13.07945,13.07945 0 0 0 13.07945,-13.07945 v -18.19116 a 13.07945,13.07945 0 0 0 -13.07945,-13.07945 h -11.34051 a 13.07945,13.07945 0 0 1 -13.07945,-13.07945 v -18.19125 a 13.07945,13.07945 0 0 1 13.07945,-13.07945 h 26.73986 a 13.07945,13.07945 0 0 0 13.07945,-13.07946 V 190.4798 A 13.07945,13.07945 0 0 0 452.4418,177.40035 h -8.11165 A 13.07945,13.07945 0 0 1 431.2507,164.32089 v -18.19124 a 13.07945,13.07945 0 0 1 13.07945,-13.07946 h 30.3987 a 13.07945,13.07945 0 0 0 13.07945,-13.07945 z"
     id="path2"
     style="opacity:0.3304721" />
  <rect
     width="159.84"
     height="145.44"
     x="136.46515"
     y="131.02226"
     fill="#409cb5"
     id="rect4" />
  <rect
     width="84.959999"
     height="145.44"
     x="296.30515"
     y="131.02226"
     fill="#3086a3"
     id="rect6" />
  <path
     fill="#25788e"
     d="m 381.26536,131.38256 h -84.96 l 29.101,-39.69379 a 3,3 0 0 1 2.41944,-1.22621 h 77.52026 a 3,3 0 0 1 2.41944,4.77378 z"
     id="path8" />
  <path
     fill="#3086a3"
     d="m 136.86052,131.38256 h 84.96 l -29.101,-39.69379 a 3,3 0 0 0 -2.41944,-1.22621 H 112.7798 a 3,3 0 0 0 -2.41944,4.77378 z"
     id="path10" />
  <path
     fill="#25788e"
     d="m 429.19707,184.38297 -47.93164,-53.00043 v 0 57.96 h 45.66016 a 3,3 0 0 0 2.27148,-4.95957 z"
     id="path12" />
  <rect
     width="110.853"
     height="78.365997"
     x="165.79715"
     y="53.01627"
     fill="#ee781d"
     id="rect14" />
  <path
     fill="#dbe8ec"
     d="m 217.98388,136.2204 h -30.498 a 3.35392,3.35392 0 0 1 -2.90457,-5.03088 l 15.249,-26.41208 15.249,-26.41208 a 3.35392,3.35392 0 0 1 5.80915,0 l 15.249,26.41208 15.249,26.41208 a 3.35392,3.35392 0 0 1 -2.90457,5.03088 z"
     id="path16" />
  <rect
     width="3.3559999"
     height="28.368"
     x="216.30615"
     y="91.526268"
     fill="#409cb5"
     rx="1.678"
     id="rect18" />
  <circle
     cx="-104.36507"
     cy="229.38445"
     r="4.0139999"
     fill="#409cb5"
     transform="rotate(-84.345)"
     id="circle20" />
  <path
     fill="#47acc4"
     d="M 244.57132,189.34256 H 92.65539 a 3,3 0 0 1 -2.27157,-4.9596 l 45.72154,-53.0004 h 159.84 l -49.10248,56.91959 a 3,3 0 0 1 -2.27156,1.04041 z"
     id="path22" />
  <path
     fill="none"
     stroke="#b9d4db"
     stroke-linecap="round"
     stroke-miterlimit="10"
     stroke-width="3"
     d="m 393.19115,237.55969 c 3.78968,0 3.78968,2 7.57935,2 3.78847,0 3.78847,-2 7.57694,-2 3.79107,0 3.79107,2 7.58215,2 3.79108,0 3.79107,-2 7.58215,-2 m -30.32059,8.73919 c 3.78968,0 3.78968,2 7.57935,2 3.78847,0 3.78847,-2 7.57694,-2 3.79107,0 3.79107,2 7.58215,2 3.79108,0 3.79107,-2 7.58215,-2 m -30.32059,8.73919 c 3.78968,0 3.78968,2 7.57935,2 3.78847,0 3.78847,-2 7.57694,-2 3.79107,0 3.79107,2 7.58215,2 3.79108,0 3.79107,-2 7.58215,-2 M 30.08762,191.34256 c 3.78967,0 3.78967,2 7.57934,2 3.78847,0 3.78847,-2 7.57694,-2 3.79108,0 3.79108,2 7.58215,2 3.79107,0 3.79108,-2 7.58215,-2 m -30.32058,8.73919 c 3.78967,0 3.78967,2 7.57934,2 3.78847,0 3.78847,-2 7.57694,-2 3.79108,0 3.79108,2 7.58215,2 3.79107,0 3.79108,-2 7.58215,-2 m -30.32058,8.7392 c 3.78967,0 3.78967,2 7.57934,2 3.78847,0 3.78847,-2 7.57694,-2 3.79108,0 3.79108,2 7.58215,2 3.79107,0 3.79108,-2 7.58215,-2 M 198.80944,19.76845 c 3.78967,0 3.78967,2 7.57934,2 3.78847,0 3.78847,-2 7.57694,-2 3.79108,0 3.79108,2 7.58215,2 3.79107,0 3.79108,-2 7.58215,-2 m -30.32058,8.73919 c 3.78967,0 3.78967,2 7.57934,2 3.78847,0 3.78847,-2 7.57694,-2 3.79108,0 3.79108,2 7.58215,2 3.79107,0 3.79108,-2 7.58215,-2 m -30.32058,8.73919 c 3.78967,0 3.78967,2 7.57934,2 3.78847,0 3.78847,-2 7.57694,-2 3.79108,0 3.79108,2 7.58215,2 3.79107,0 3.79108,-2 7.58215,-2"
     id="path24" />
  <circle
     cx="102.60915"
     cy="290.43527"
     r="12.96"
     fill="#b9d4db"
     id="circle26" />
  <circle
     cx="112.01315"
     cy="256.24927"
     r="6.7199998"
     fill="#b9d4db"
     id="circle28" />
  <circle
     cx="138.62715"
     cy="291.87527"
     r="9.6000004"
     fill="#b9d4db"
     id="circle30" />
  <circle
     cx="89.873146"
     cy="111.92628"
     r="15.42"
     fill="#b9d4db"
     id="circle32" />
  <circle
     cx="60.408146"
     cy="100.94328"
     r="8.0319996"
     fill="#b9d4db"
     id="circle34" />
  <circle
     cx="67.786156"
     cy="73.640266"
     r="4.6329999"
     fill="#b9d4db"
     id="circle36" />
  <circle
     cx="93.433159"
     cy="76.918266"
     r="11.107"
     fill="#b9d4db"
     id="circle38" />
  <circle
     cx="357.89215"
     cy="37.142277"
     r="15.42"
     fill="#b9d4db"
     id="circle40" />
  <circle
     cx="382.42715"
     cy="17.47427"
     r="8.0319996"
     fill="#b9d4db"
     id="circle42" />
  <circle
     cx="413.10913"
     cy="61.548267"
     r="6.9520001"
     fill="#b9d4db"
     id="circle44" />
  <circle
     cx="402.08716"
     cy="37.805271"
     r="4.6329999"
     fill="#b9d4db"
     id="circle46" />
  <circle
     cx="386.12415"
     cy="58.145267"
     r="11.107"
     fill="#b9d4db"
     id="circle48" />
</svg>
