<?xml version="1.0" encoding="UTF-8" standalone="no"?>
<svg
   data-name="Layer 1"
   viewBox="0 0 477.80829 367.00977"
   version="1.1"
   id="svg301"
   sodipodi:docname="page-lost.svg"
   width="477.80829"
   height="367.00977"
   inkscape:version="1.2 (dc2aedaf03, 2022-05-15)"
   xmlns:inkscape="http://www.inkscape.org/namespaces/inkscape"
   xmlns:sodipodi="http://sodipodi.sourceforge.net/DTD/sodipodi-0.dtd"
   xmlns="http://www.w3.org/2000/svg"
   xmlns:svg="http://www.w3.org/2000/svg">
  <sodipodi:namedview
     id="namedview303"
     pagecolor="#ffffff"
     bordercolor="#666666"
     borderopacity="1.0"
     inkscape:showpageshadow="2"
     inkscape:pageopacity="0.0"
     inkscape:pagecheckerboard="true"
     inkscape:deskcolor="#d1d1d1"
     showgrid="false"
     inkscape:zoom="0.80957031"
     inkscape:cx="253.22075"
     inkscape:cy="187.75392"
     inkscape:window-width="1920"
     inkscape:window-height="1009"
     inkscape:window-x="-8"
     inkscape:window-y="-8"
     inkscape:window-maximized="1"
     inkscape:current-layer="svg301" />
  <defs
     id="defs239">
    <linearGradient
       id="a"
       x1="385.26901"
       x2="197.929"
       y1="244.81799"
       y2="466.67801"
       gradientUnits="userSpaceOnUse">
      <stop
         offset="0"
         stop-color="#f9ae2b"
         id="stop234" />
      <stop
         offset="1"
         stop-color="#fff"
         stop-opacity="0"
         id="stop236" />
    </linearGradient>
  </defs>
  <g
     id="g2900"
     style="opacity:0.50157729">
    <circle
       cx="258.76614"
       cy="173.618"
       r="173.618"
       fill="#dbe8ec"
       id="circle241" />
    <path
       fill="#dbe8ec"
       d="M 477.8083,176.52999 V 158.3388 a 13.07945,13.07945 0 0 0 -13.07945,-13.07945 h -46.166 A 13.07945,13.07945 0 0 1 405.48339,132.1799 v -18.19116 a 13.07946,13.07946 0 0 1 13.07946,-13.07946 h 1.45764 A 13.07945,13.07945 0 0 0 433.09994,87.82983 V 69.63867 A 13.07945,13.07945 0 0 0 420.02049,56.55922 H 88.11333 A 13.07945,13.07945 0 0 0 75.03388,69.63867 v 18.19116 a 13.07945,13.07945 0 0 0 13.07945,13.07945 v 0 a 13.07945,13.07945 0 0 1 13.07945,13.07946 V 132.1799 A 13.07945,13.07945 0 0 1 88.11333,145.25935 H 37.53395 A 13.07945,13.07945 0 0 0 24.4545,158.3388 v 18.19119 a 13.07945,13.07945 0 0 0 13.07945,13.07946 h 19.84658 a 13.07945,13.07945 0 0 1 13.07945,13.07945 v 18.19124 A 13.07945,13.07945 0 0 1 57.38053,233.9596 h -0.048 a 13.07945,13.07945 0 0 0 -13.07938,13.07939 v 18.1911 a 13.07945,13.07945 0 0 0 13.07945,13.07946 h 2.87139 a 13.07945,13.07945 0 0 1 13.07942,13.07944 v 18.19125 A 13.07945,13.07945 0 0 1 60.20396,322.65969 H 13.07945 A 13.07945,13.07945 0 0 0 0,335.73914 v 18.19116 a 13.07945,13.07945 0 0 0 13.07945,13.07946 h 413.963 A 13.07945,13.07945 0 0 0 440.1219,353.93031 V 335.73915 A 13.07945,13.07945 0 0 0 427.04245,322.6597 h -11.34051 a 13.07945,13.07945 0 0 1 -13.07945,-13.07945 v -18.19126 a 13.07945,13.07945 0 0 1 13.07945,-13.07945 h 26.73986 a 13.07945,13.07945 0 0 0 13.07945,-13.07945 v -18.1911 A 13.07945,13.07945 0 0 0 442.4418,233.95954 h -8.11165 A 13.07945,13.07945 0 0 1 421.2507,220.88008 v -18.19121 a 13.07945,13.07945 0 0 1 13.07945,-13.07945 h 30.3987 a 13.07945,13.07945 0 0 0 13.07945,-13.07943 z"
       id="path243"
       style="fill-opacity:1;fill:#dbe8ec" />
  </g>
  <circle
     cx="306.34714"
     cy="342.58899"
     r="12.96"
     fill="#b9d4db"
     id="circle263" />
  <circle
     cx="289.06714"
     cy="311.62897"
     r="6.7199998"
     fill="#b9d4db"
     id="circle265" />
  <circle
     cx="333.02515"
     cy="318.349"
     r="9.6000004"
     fill="#b9d4db"
     id="circle267" />
  <circle
     cx="122.31416"
     cy="74.595993"
     r="15.42"
     fill="#b9d4db"
     id="circle269" />
  <circle
     cx="92.849159"
     cy="63.612991"
     r="8.0319996"
     fill="#b9d4db"
     id="circle271" />
  <circle
     cx="100.22616"
     cy="36.30999"
     r="4.6329999"
     fill="#b9d4db"
     id="circle273" />
  <circle
     cx="125.87415"
     cy="39.58799"
     r="11.107"
     fill="#b9d4db"
     id="circle275" />
  <circle
     cx="397.90616"
     cy="114.86398"
     r="15.42"
     fill="#b9d4db"
     id="circle277" />
  <circle
     cx="366.50916"
     cy="116.60199"
     r="8.0319996"
     fill="#b9d4db"
     id="circle279" />
  <circle
     cx="367.16815"
     cy="62.903992"
     r="6.9520001"
     fill="#b9d4db"
     id="circle281" />
  <circle
     cx="362.33313"
     cy="88.62999"
     r="4.6329999"
     fill="#b9d4db"
     id="circle283" />
  <circle
     cx="387.14615"
     cy="81.360992"
     r="11.107"
     fill="#b9d4db"
     id="circle285" />
  <circle
     cx="288.05515"
     cy="114.51999"
     r="36.865002"
     fill="#d62828"
     id="circle287" />
  <circle
     cx="309.91113"
     cy="96.265991"
     r="5.783"
     fill="#f9ae2b"
     id="circle289" />
  <ellipse
     cx="-3.9393713"
     cy="309.03391"
     fill="#409cb5"
     rx="42.827999"
     ry="146.375"
     transform="rotate(-63.832)"
     id="ellipse291" />
  <path
     fill="#3086a3"
     d="m 286.85936,116.95266 c 63.439,31.17224 109.9088,70.33955 113.61187,93.88083 a 14.99154,14.99154 0 0 0 6.52336,-6.45969 C 417.42598,183.1448 367.06481,137.03413 294.51006,101.38264 221.95531,65.73115 154.68238,54.03947 144.25099,75.26851 a 14.99578,14.99578 0 0 0 -1.12833,9.11066 c 20.89827,-11.45283 80.29774,1.40125 143.7367,32.57349 z"
     id="path293" />
  <ellipse
     cx="-21.016609"
     cy="309.03409"
     fill="#f9ae2b"
     rx="17.077"
     ry="58.363998"
     transform="rotate(-63.832)"
     id="ellipse295" />
  <path
     fill="#ea9918"
     d="m 272.57188,146.02935 c 25.29508,12.42934 43.824,28.04656 45.30058,37.4332 a 5.97763,5.97763 0 0 0 2.60106,-2.57568 c 4.15932,-8.46467 -15.92124,-26.85041 -44.85106,-41.06577 -28.92982,-14.21536 -55.75363,-18.87718 -59.91295,-10.41251 a 5.97924,5.97924 0 0 0 -0.44989,3.63271 c 8.33278,-4.5666 32.01719,0.55869 57.31226,12.98805 z"
     id="path297" />
  <polygon
     fill="url(#a)"
     points="301.355,205.536 405.044,256.486 344.814,431.385 114.668,431.385 "
     id="polygon299"
     style="fill:url(#a)"
     transform="translate(-86.09585,-72.49501)" />
</svg>
