<?xml version="1.0" encoding="UTF-8" standalone="no"?>
<svg
   viewBox="0 0 618.60199 453.42761"
   version="1.1"
   id="svg66"
   sodipodi:docname="processing.svg"
   width="618.60199"
   height="453.42761"
   inkscape:version="1.2 (dc2aedaf03, 2022-05-15)"
   xmlns:inkscape="http://www.inkscape.org/namespaces/inkscape"
   xmlns:sodipodi="http://sodipodi.sourceforge.net/DTD/sodipodi-0.dtd"
   xmlns="http://www.w3.org/2000/svg"
   xmlns:svg="http://www.w3.org/2000/svg">
  <defs
     id="defs70" />
  <sodipodi:namedview
     id="namedview68"
     pagecolor="#ffffff"
     bordercolor="#666666"
     borderopacity="1.0"
     inkscape:showpageshadow="2"
     inkscape:pageopacity="0.0"
     inkscape:pagecheckerboard="true"
     inkscape:deskcolor="#d1d1d1"
     showgrid="false"
     inkscape:zoom="0.76759259"
     inkscape:cx="304.84922"
     inkscape:cy="222.77443"
     inkscape:window-width="1920"
     inkscape:window-height="1009"
     inkscape:window-x="-8"
     inkscape:window-y="-8"
     inkscape:window-maximized="1"
     inkscape:current-layer="svg66" />
  <path
     fill="#ffbe55"
     d="m 568.74499,415.04262 c 0,0 56.494,-120.34 -7.225,-110.384 -63.719,9.956 -53.763,-73.066 -17.921,-134.6 35.842,-61.534 -36.837,-170.05499521 -133.411,-90.405995 -96.574,79.648995 -121.464,-80.64400021 -241.932,-79.64800021 -120.467996,0.99600001 -67.776,95.41200021 -6.011,148.75999521 61.765,53.348 -134.074996,89.671 -112.610996,133.519 21.465,43.848 -53.4969996,144.99 64.919996,142.922 118.417,-2.069 454.191,-10.163 454.191,-10.163 z"
     opacity="0.17"
     id="path2" />
  <path
     fill="#00aef0"
     d="m 531.41599,408.72762 16.019,-1.833 c 8.614,-4.741 16.035,-10.106 21.546,-14.77 -4.608,-3.963 -18.288,-3.818 -18.288,-3.818 14.075,-1.228 18.358,-0.092 22.967,-0.475 7.589,-7.512 11.373,-18.056 15.686,-26.549 -16.541,5.139 -20.764,5.393 -20.764,5.393 9.952,-2.221 16.69,-6.579 22.541,-9.064 9.97,-21.514 6.558,-31.645 6.558,-31.645 -7.048,1.025 -22.57,5.352 -28.568,6.814 -6.28,9.325 -12.312,21.938 -12.312,21.938 1.502,-6.345 5.486,-14.887 8.589,-20.983 -8.669,2.32 -7.241,2.037 -14.025,5.275 -6.746,9.35 -14.083,27.583 -14.083,27.583 1.297,-7.691 5.976,-18.77 8.723,-24.841 -11.514,6.3 -20.544,14.029 -28.5,23.007 -3.169,9.27 -5.389,19.008 -5.389,19.008 0.015,-4.343 0.925,-9.904 2.028,-15.071 -8.655,10.518 -16.21,22.59 -24.695,35.957 l -4.032,12.988 17.361,1.894 c 13.765,0.198 27.307,-4.022 39.089,-9.756 z"
     opacity="0.55"
     id="path4" />
  <path
     fill="#00aef0"
     d="m 521.19999,385.87662 13.534,-8.764 c 5.608,-8.077 9.87,-16.181 12.733,-22.81 -5.89,-1.501 -18.078,4.711 -18.078,4.711 12.061,-7.358 16.402,-8.245 20.361,-10.637 3.458,-10.103 2.159,-21.23 2.247,-30.754 -12.532,11.957 -16.201,14.062 -16.201,14.062 7.926,-6.414 12.025,-13.314 16.161,-18.141 -0.635,-23.704 -8.195,-31.261 -8.195,-31.261 -5.857,4.052 -17.837,14.829 -22.559,18.805 -1.479,11.144 -1.275,25.124 -1.275,25.124 -1.476,-6.351 -1.705,-15.774 -1.635,-22.614 -6.733,5.933 -5.58,5.044 -10.218,10.961 -1.886,11.374 -0.352,30.968 -0.352,30.968 -2.258,-7.466 -2.993,-19.47 -3.231,-26.129 -7.512,10.763 -12.164,21.7 -15.299,33.279 1.283,9.712 3.624,19.422 3.624,19.422 -1.917,-3.897 -3.575,-9.283 -4.885,-14.401 -3.076,13.27 -4.476,27.441 -6.133,43.188 l 2.163,13.427 16.393,-6.022 c 12.418,-5.943 22.671,-15.743 30.676,-26.118 z m -428.446996,21.288 c 11.782996,5.734 25.323996,9.954 39.088996,9.756 l 17.361,-1.894 -4.032,-12.988 c -8.485,-13.368 -16.04,-25.439 -24.695,-35.957 1.102,5.167 2.013,10.729 2.028,15.071 0,0 -2.22,-9.739 -5.389,-19.008 -7.957,-8.978 -16.986,-16.707 -28.499996,-23.007 2.747,6.071 7.426,17.15 8.723,24.841 0,0 -7.337,-18.233 -14.083,-27.583 -6.785,-3.238 -5.357,-2.955 -14.025,-5.275 3.103,6.096 7.088,14.639 8.589,20.983 0,0 -6.032,-12.613 -12.312,-21.938 -5.998,-1.462 -21.52,-5.788 -28.568,-6.814 0,0 -3.412,10.13 6.558,31.645 5.851,2.485 12.59,6.843 22.541,9.064 0,0 -4.223,-0.254 -20.764,-5.393 4.314,8.492 8.097,19.037 15.686,26.549 4.609,0.383 8.892,-0.753 22.967,0.475 0,0 -13.68,-0.146 -18.288,3.818 5.512,4.665 12.932,10.029 21.546,14.77 l 16.018996,1.833 z"
     opacity="0.55"
     id="path6" />
  <path
     fill="#00aef0"
     d="m 103.59199,379.55762 c 8.005,10.375 18.258,20.175 30.676,26.118 l 16.393,6.022 2.163,-13.427 c -1.657,-15.747 -3.058,-29.918 -6.133,-43.188 -1.31,5.118 -2.967,10.505 -4.885,14.401 0,0 2.341,-9.71 3.624,-19.422 -3.135,-11.58 -7.787,-22.517 -15.299,-33.279 -0.239,6.659 -0.974,18.663 -3.231,26.129 0,0 1.534,-19.594 -0.352,-30.968 -4.638,-5.917 -3.484,-5.028 -10.218,-10.961 0.07,6.84 -0.16,16.263 -1.635,22.614 0,0 0.205,-13.98 -1.275,-25.124 -4.723,-3.976 -16.702996,-14.753 -22.558996,-18.805 0,0 -7.56,7.557 -8.195,31.261 4.136,4.827 8.235,11.727 16.161,18.141 0,0 -3.67,-2.105 -16.201,-14.062 0.088,9.525 -1.211,20.652 2.247,30.754 3.958,2.392 8.299,3.279 20.360996,10.637 0,0 -12.188996,-6.213 -18.077996,-4.711 2.863,6.629 7.125,14.733 12.733,22.81 l 13.533996,8.764 z"
     opacity="0.55"
     id="path8" />
  <ellipse
     cx="309.30099"
     cy="428.57562"
     fill="#e2e2e2"
     rx="309.30099"
     ry="24.851999"
     id="ellipse10" />
  <path
     fill="#ffbe55"
     d="m 148.52299,115.19462 c 0.11,-0.992 0.171,-1.998 0.171,-3.019 0,-14.967995 -12.134,-27.102995 -27.103,-27.102995 -11.867,0 -21.944996,7.63 -25.614996,18.248995 a 12.309,12.309 0 0 0 -14.645,6.467 19.713,19.713 0 0 0 -4.369,-0.492 c -10.878,0 -19.695,8.818 -19.695,19.695 0,10.847 8.769,19.644 19.605,19.693 v 0.08 h 68.433996 c 9.355,0 16.939,-7.584 16.939,-16.939 0.001,-8.256 -5.906,-15.128 -13.722,-16.631 z m 431.264,87.109 c 0.071,-0.644 0.111,-1.297 0.111,-1.96 0,-9.716 -7.876,-17.592 -17.592,-17.592 -7.702,0 -14.244,4.952 -16.626,11.845 a 7.99,7.99 0 0 0 -9.506,4.197 12.8,12.8 0 0 0 -2.836,-0.32 c -7.06,0 -12.784,5.724 -12.784,12.784 0,7.041 5.692,12.75 12.725,12.782 v 0.052 h 44.419 c 6.072,0 10.995,-4.923 10.995,-10.995 10e-4,-5.357 -3.832,-9.817 -8.906,-10.793 z"
     opacity="0.61"
     id="path12" />
  <path
     fill="#ffbe55"
     d="m 375.03099,397.20262 h -36.325 v -104.353 c 0,-5.812 -4.755,-10.567 -10.567,-10.567 -5.812,0 -10.567,4.755 -10.567,10.567 v 104.352 h -36.325 c -11.672,0 -21.135,9.462 -21.135,21.135 h 136.054 c 0,-11.672 -9.463,-21.134 -21.135,-21.134 z"
     id="path14" />
  <path
     fill="#ffbe55"
     d="m 129.19699,346.14862 v -219.447 a 7.464,7.464 0 0 1 7.464,-7.464 h 382.956 a 7.463,7.463 0 0 1 7.463,7.463 v 219.447 a 7.464,7.464 0 0 1 -7.464,7.464 h -382.956 a 7.463,7.463 0 0 1 -7.463,-7.463 z"
     id="path16" />
  <path
     fill="#ffffff"
     d="m 517.62699,128.50662 v 213.175 h -378.978 v -213.175 z"
     id="path18" />
  <path
     fill="#ffbe55"
     fill-rule="evenodd"
     d="m 316.15999,205.03462 -13.948,10.33 5.124,2.251 c -0.776,1.934 -1.02,3.974 -1.051,6.09 0.105,2.689 0.466,5.413 1.347,8.05 0.842,2.457 2.317,4.961 3.901,6.964 1.711,2.164 3.776,3.9 6.064,5.272 2.45,1.308 4.981,2.351 7.532,2.744 2.639,0.543 5.394,0.598 8.052,0.09 5.142,-0.915 9.983,-3.766 13.126,-7.732 3.57,-3.982 5.164,-9.15 5.159,-14.181 -0.035,-2.513 -0.536,-5.188 -1.52,-7.545 -0.722,-2.31 -2.164,-4.414 -3.779,-6.416 -3.254,-3.755 -7.904,-6.285 -12.768,-7.011 -2.455,-0.232 -4.973,-0.225 -7.361,0.343 -2.359,0.332 -4.618,1.461 -6.664,2.667 2.046,-1.205 4.339,-1.935 6.848,-2.356 2.334,-0.318 4.701,-0.236 6.982,0.099 4.653,1.051 8.883,3.61 11.749,7.392 1.408,1.705 2.461,3.836 3.238,5.895 0.747,2.295 1.056,4.647 0.901,6.836 -0.259,4.583 -2.078,9.026 -5.033,12.227 -2.94,3.226 -7.199,5.298 -11.559,5.769 -4.273,0.621 -8.751,-0.534 -12.236,-2.911 -1.811,-1.248 -3.298,-2.688 -4.61,-4.231 -1.101,-1.868 -2.208,-3.749 -2.747,-5.748 -0.797,-3.122 -0.787,-6.701 0.133,-9.76 l 5.266,2.15 z"
     clip-rule="evenodd"
     id="path20" />
  <path
     fill="#fab9af"
     d="m 132.98599,406.15362 0.029,7.896 a 17.236,17.236 0 0 1 -0.649,4.752 l -0.686,2.432 c -0.564,1.997 0.937,3.979 3.012,3.971 5.378,-0.019 14.57,-0.005 16.939,-10e-4 0.388,10e-4 0.768,-0.261 0.801,-0.647 0.2,-2.305 -6.459,-3.849 -11.474,-5.791 -3.82,-1.479 -3.617,-8.345 -3.146,-12.355 0.178,-1.515 -1.086,-2.804 -2.606,-2.678 a 2.42,2.42 0 0 0 -2.22,2.421 z m -36.963996,-2.215 -2.721,9.033 c -0.12,0.399 -0.3,0.778 -0.533,1.124 l -1.929,2.864 a 3.262,3.262 0 0 0 1.754,4.942 c 0,0 3.889,1.368 7.897996,2.685 4.104,1.348 9.265,0.221 9.265,-0.861 0,-2.406 -2.243,-0.496 -6.001,-3.009 -1.259,-0.842 -2.559,-1.723 -3.717,-2.632 -3.233996,-2.539 -0.409996,-8.965 1.57,-12.585 0.712,-1.301 -0.044,-2.917 -1.495,-3.226 l -0.936996,-0.2 a 2.705,2.705 0 0 0 -3.154,1.865 z"
     id="path22" />
  <path
     fill="#0b4870"
     d="m 123.81299,298.27962 29.806,-2.502 c 0,0 3.001,21.693 -4.532,60.963 -3.533,18.415 -10.895,53.606 -10.895,53.606 -1.825,0.799 -3.68,0.999 -5.57,0.528 0,0 -0.559,-15.523 -0.901,-32.239 -0.328,-16.032 -0.416,-33.163 -1.438,-38.768 -2.086,-11.449 -6.47,-41.588 -6.47,-41.588 z"
     id="path24" />
  <path
     fill="#0b4870"
     d="m 129.96499,298.65762 c 3.077,16.515 9.952,41.211 -3.29,64.411 -13.242,23.2 -27.149996,47.32 -27.149996,47.32 -1.792,0.073 -3.417,-0.577 -4.927,-1.723 0,0 2.322,-10.518 5.677996,-22.799 3.839,-14.049 8.703,-30.575 7.317,-39.191 -2.597,-16.148 -5.579,-37.654 -4.676,-48.098 0.905,-10.443 25.43,-8.604 27.048,0.08 z m 22.378,-58.432 23.489,12.913 23.588,-37.12 -28.53,-9.911 z"
     id="path26" />
  <path
     fill="#e3f2ff"
     d="m 153.82899,239.10762 21.967,12.073 22.059,-34.711 -26.68,-9.269 z"
     id="path28" />
  <path
     fill="#fab9af"
     d="m 145.78499,232.61562 c 0,0 4.088,-1.955 5.883,-2.978 1.794,-1.021 6.41,-2.425 6.783,-2.758 0.372,-0.334 13.683,-1.155 14.491,-1.85 0.807,-0.696 1.592,1.632 -1.858,2.388 -3.45,0.756 -8.25,2.604 -8.513,3.952 -0.262,1.349 3.543,1.668 3.929,2.778 0.386,1.11 -0.108,0.863 -0.653,1.099 -0.546,0.239 -4.528,-1.966 -6.279,-1.34 -1.751,0.627 -4.427,-0.241 -5.769,0.219 -1.342,0.459 -7.867,2.655 -7.867,2.655 z"
     id="path30" />
  <path
     fill="#ead8cf"
     d="m 153.16299,235.50262 2.106,-0.778 c 0,0 -2.626,-6.164 -3.772,-6.014 -1.321,0.174 -2.968,0.609 -2.968,0.609 z"
     id="path32" />
  <path
     fill="#da9b5b"
     d="m 153.64399,236.56862 c -0.27,-0.201 -4.476,-8.273 -4.476,-8.273 l -8.989,1.219 4.858,9.561 z"
     id="path34" />
  <path
     fill="#fab9af"
     d="m 176.97399,248.47662 c 0,0 3.434,-3.09 5.096,-4.385 1.662,-1.293 4.782,-5.096 5.241,-5.317 0.459,-0.223 6.416,-12.448 7.388,-12.936 0.97,-0.491 -0.919,-2.138 -2.975,0.82 -2.055,2.958 -5.665,6.761 -7.039,6.485 -1.373,-0.279 -0.192,-3.99 -1.088,-4.784 -0.897,-0.798 -0.854,-0.237 -1.291,0.185 -0.437,0.424 0.09,5.034 -1.182,6.44 -1.272,1.404 -1.497,4.267 -2.452,5.35 -0.955,1.085 -5.565,6.382 -5.565,6.382 z m -54.76,-76.285 c 0,0 10.307,-3.85 15.059,3.997 4.751,7.845 4.294,23.549 -0.902,25.482 -5.194,1.931 -12.999,0.921 -15.658,-3.988 -2.659,-4.909 -5.061,-12.004 -4.945,-16.748 0.115,-4.744 3.739,-7.374 6.446,-8.743 z"
     id="path36" />
  <path
     fill="#fab9af"
     d="m 135.25299,202.02962 c 0,0 -0.832,7.397 -0.123,8.77 0.709,1.369 -12.866,0 -12.866,0 0,0 -1.226,-10.665 -3.389,-16.967 -2.164,-6.297 16.378,8.197 16.378,8.197 z"
     id="path38" />
  <path
     fill="#0b4870"
     d="m 118.87499,193.83262 c 0,0 0.499,7.94 4.461,7.318 3.961,-0.62 9.265,-12.229 10.919,-12.806 1.654,-0.58 1.67,-1.551 1.67,-1.551 l 1.035,1.513 1.757,0.112 c 0,0 -1.602,-4.715 0.815,-6.639 2.418,-1.922 -2.509,-15.261 -15.213,-10.821 0,0 -9.758,2.691 -9.404,8.239 0.356,5.551 1.777,11.873 3.96,14.635 z"
     id="path40" />
  <path
     fill="#e2d2ca"
     d="m 136.73999,212.45062 c 0,0 -0.045,-2.617 -1.232,-2.871 -1.187,-0.25 -13.104,-1.395 -14.561,-0.822 v 3.052 c 0,-0.001 2.808,1.726 15.793,0.641 z"
     id="path42" />
  <path
     fill="#eea886"
     d="m 135.66199,184.77562 c -0.222,-0.932 -2.589,-3.591 -3.495,-0.742 -0.906,2.847 1.37,6.679 2.639,6.349 1.27,-0.326 1.42,-3.247 0.856,-5.607 z"
     id="path44" />
  <path
     fill="#00aef0"
     d="m 103.10799,297.51762 c 0,0 4.377,14.174 15.101,15.786 21.969,3.302 36.889,-10.857 37.058,-12.13 0.171,-1.275 -12.076,-27.99 -11.736,-30.366 0.339,-2.376 3.379,-35.714 3.379,-35.714 0.134,2.321 6.741,27.669 9.594,32.834 1.03,1.866 4.488,7.715 6.155,6.384 8.068,-6.44 20.561,-30.714 21.354,-30.919 -0.667,-0.29 -5.921,-2.708 -6.659,-2.954 -0.645,-0.216 -6.466,5.945 -9.993,9.766 -1.573,1.703 -2.688,2.94 -2.688,2.94 -1.019,-2.292 -4.728,-16.726 -5.881,-21.722 -2.6,-11.266 -2.2,-11.734 -2.2,-11.734 -7.885,-2.385 -19.853,-7.241 -19.853,-7.241 l -15.793,-0.642 c 0,0 -14.494,3.19 -20.202,5.767 -0.542,0.245 -0.544,12.932 -2.029996,16.257 l 4.732996,9.985 c 0,0 9.815,19.522 10.382,28.319 0.262,4.04 -10.721,25.384 -10.721,25.384 z"
     id="path46" />
  <path
     fill="#00aef0"
     d="m 98.058994,250.30462 c 0.412,1.331 2.284996,2.454 3.500996,2.947 a 4.535,4.535 0 0 0 2.529,0.254 l 0.619,-0.114 v -0.002 l 10.823,-2.009 c 0,0 2.367,-27.272 -14.785,-33.806 -0.455,0.15 -6.473996,20.518 -2.686996,32.73 z"
     id="path48" />
  <path
     fill="#3a3f47"
     d="m 119.27899,173.11662 c 0,0 -12.969,1.315 -0.231,21.004 z"
     id="path50" />
  <path
     fill="#0b4870"
     d="m 188.55899,214.02162 1.372,-2.358 -10.814,-3.732 -1.373,2.348 z"
     id="path52" />
  <g
     fill="#00aef0"
     id="g58"
     transform="translate(-230.83701,-317.48938)">
    <path
       d="M 650.297,580.253 H 465.054 a 3.575,3.575 0 0 1 -3.565,-3.565 3.575,3.575 0 0 1 3.565,-3.565 h 185.243 a 3.575,3.575 0 0 1 3.565,3.565 3.575,3.575 0 0 1 -3.565,3.565 z"
       opacity="0.5"
       id="path54" />
    <path
       d="m 560.632,580.253 h -95.578 a 3.575,3.575 0 0 1 -3.565,-3.565 3.575,3.575 0 0 1 3.565,-3.565 h 95.578 a 3.575,3.575 0 0 1 3.565,3.565 3.576,3.576 0 0 1 -3.565,3.565 z"
       id="path56" />
  </g>
  <path
     fill="#7edefc"
     d="m 138.64899,128.50662 h 378.978 v 20.257 h -378.978 z"
     id="path60" />
  <path
     fill="#ffffff"
     d="m 477.92499,138.63562 a 4.842,4.842 0 1 0 -9.684,0 4.842,4.842 0 0 0 9.684,0 z m 15.015,0 a 4.842,4.842 0 1 0 -9.684,0 4.842,4.842 0 0 0 9.684,0 z m 15.015,0 a 4.842,4.842 0 1 0 -9.684,0 4.842,4.842 0 0 0 9.684,0 z"
     id="path62" />
  <path
     fill="#0b4870"
     d="m 122.62499,171.24762 c 0,0 -14.707,-0.497 -9.179,17.092 5.528,17.589 10.539,37.232 3.968,40.851 0,0 11.509,-1.679 11.43,-14.462 -0.079,-12.783 5.123,-20.609 5.123,-20.609 l 4.75,-5.702 c 0,0 -7.055,-17.835 -15.307,-17.171"
     id="path64" />
</svg>
