<svg xmlns="http://www.w3.org/2000/svg" viewBox="0 0 422.87 395.4"><g data-name="Layer 2"><g data-name="Layer 1"><path fill="none" stroke="#008ef8" stroke-linecap="round" stroke-linejoin="round" d="M345.16 61.6h69.57v48.99h-69.57z" transform="rotate(-149.15 379.94 86.106)"/><circle cx="372.36" cy="119.14" r="31.11" fill="#b9ceed"/><rect width="97.06" height="98.1" x="31.62" y="26.9" fill="#c1e3f7" rx="13" transform="rotate(45 80.139 75.955)"/><rect width="114.32" height="114.32" x="22.98" y="18.79" fill="none" stroke="#008ef8" stroke-linecap="round" stroke-linejoin="round" rx="13" transform="rotate(45 80.139 75.955)"/><path fill="#439916" d="M232.71 13.66a78.7 78.7 0 0 1 1.2 7.89c.3 2.63.49 5.27.65 7.92s.23 5.29.21 7.94a79 79 0 0 1-.35 8 78.74 78.74 0 0 1-1.21-7.89c-.3-2.63-.48-5.27-.64-7.92s-.23-5.29-.21-7.94.08-5.33.35-8Z"/><path fill="#439916" d="M249.42 28.67c-2.62.55-5.25.91-7.88 1.2s-5.28.49-7.92.65-5.29.22-7.94.21a79 79 0 0 1-8-.36c2.63-.55 5.26-.91 7.89-1.2s5.28-.49 7.92-.65 5.29-.22 7.94-.2a76 76 0 0 1 7.99.35ZM253.64 33.1a38 38 0 0 1 1.07 5.3c.24 1.77.41 3.55.5 5.33s.12 3.56.07 5.35a36.47 36.47 0 0 1-.49 5.38 38 38 0 0 1-1.07-5.3c-.24-1.77-.41-3.55-.5-5.33s-.12-3.56-.07-5.35a36.35 36.35 0 0 1 .49-5.38Z"/><path fill="#439916" d="M264.89 43.2a37.57 37.57 0 0 1-5.29 1.07c-1.77.24-3.55.41-5.33.51s-3.56.11-5.35.07a36.37 36.37 0 0 1-5.38-.5 36.43 36.43 0 0 1 5.29-1.06 63.646 63.646 0 0 1 10.68-.57 37.73 37.73 0 0 1 5.38.48ZM15 231.4c.55 2.62.91 5.25 1.2 7.88s.49 5.28.65 7.92.22 5.29.21 7.94a78.84 78.84 0 0 1-.36 8c-.55-2.62-.91-5.25-1.2-7.88s-.49-5.28-.65-7.92-.22-5.29-.2-7.94a76 76 0 0 1 .35-8Z"/><path fill="#439916" d="M31.72 246.4a78.7 78.7 0 0 1-7.89 1.2c-2.63.31-5.27.49-7.92.65s-5.29.23-7.94.21a79 79 0 0 1-8-.35 78.74 78.74 0 0 1 7.89-1.21c2.63-.3 5.27-.48 7.92-.64s5.29-.23 7.94-.21 5.33.08 8 .35ZM35.94 250.84a36.16 36.16 0 0 1 1.06 5.29c.24 1.77.42 3.55.51 5.33s.12 3.56.07 5.35a36.35 36.35 0 0 1-.49 5.38A36.2 36.2 0 0 1 36 266.9c-.24-1.78-.42-3.55-.51-5.33s-.11-3.57-.06-5.35a36.35 36.35 0 0 1 .51-5.38Z"/><path fill="#439916" d="M47.19 260.94a36.29 36.29 0 0 1-5.3 1.06c-1.77.24-3.54.42-5.32.51s-3.57.12-5.36.07a36.6 36.6 0 0 1-5.38-.49 36.6 36.6 0 0 1 5.3-1.07c1.77-.24 3.55-.41 5.33-.5s3.56-.12 5.35-.07a36.35 36.35 0 0 1 5.38.49ZM354.45 206.14c.55 2.63.91 5.26 1.2 7.89s.49 5.28.65 7.92.22 5.29.21 7.94a78.84 78.84 0 0 1-.36 8c-.55-2.62-.91-5.25-1.2-7.88s-.49-5.28-.65-7.92-.22-5.29-.2-7.94a79.15 79.15 0 0 1 .35-8.01Z"/><path fill="#439916" d="M371.16 221.15a78.7 78.7 0 0 1-7.89 1.2c-2.63.31-5.27.49-7.92.65s-5.29.23-7.94.21a79 79 0 0 1-8-.35 78.74 78.74 0 0 1 7.89-1.21c2.63-.3 5.27-.48 7.92-.64s5.29-.23 7.94-.21 5.33.08 8 .35ZM375.38 225.59a36.16 36.16 0 0 1 1.06 5.29c.24 1.77.42 3.55.51 5.33s.12 3.56.07 5.35a36.35 36.35 0 0 1-.49 5.38 36.33 36.33 0 0 1-1.07-5.3c-.24-1.77-.42-3.54-.51-5.32s-.11-3.57-.06-5.35a36.35 36.35 0 0 1 .49-5.38Z"/><path fill="#439916" d="M386.63 235.69a36.56 36.56 0 0 1-5.3 1.06c-1.77.24-3.54.42-5.32.51s-3.57.12-5.35.07a36.61 36.61 0 0 1-5.39-.49 36.6 36.6 0 0 1 5.3-1.07c1.77-.24 3.55-.41 5.33-.5s3.56-.12 5.35-.07a36.35 36.35 0 0 1 5.38.49Z"/><path fill="#f4d8be" d="m323.6 55.37-21 35.11a32.51 32.51 0 0 1-.08-4.2l17.34-29a28.86 28.86 0 0 1 3.74-1.91ZM314.05 61.56l-10.54 17.63a34.69 34.69 0 0 1 10.54-17.63ZM330.15 53.26l-26.29 44a30.81 30.81 0 0 1-.72-3.13l23.94-40.08a23.86 23.86 0 0 1 3.07-.79ZM336.07 52.5 306 102.82a20.65 20.65 0 0 1-1.1-2.49l28.44-47.62a21 21 0 0 1 2.73-.21ZM341.44 52.67l-32.73 54.8a22.91 22.91 0 0 1-1.33-2.12L339 52.49a2.16 2.16 0 0 1 .36 0c.64.03 1.38.1 2.08.18ZM346.25 53.55l-34.49 57.74c-.53-.58-1-1.17-1.52-1.79L344 53a19.3 19.3 0 0 1 2.25.55ZM350.69 55l-35.55 59.5c-.6-.49-1.16-1-1.7-1.51l35.11-58.77a21.68 21.68 0 0 1 2.14.78ZM354.94 57l-36 60.24a17.05 17.05 0 0 1-1.84-1.26L353 56c.63.3 1.31.65 1.94 1ZM358.87 59.64l-35.77 59.88c-.67-.3-1.34-.62-2-1l35.95-60.19a18.64 18.64 0 0 1 1.82 1.31ZM362.52 62.83l-34.88 58.38c-.74-.2-1.47-.46-2.16-.72l35.39-59.25c.55.51 1.13 1.04 1.65 1.59ZM365.75 66.57l-33.27 55.69a20.07 20.07 0 0 1-2.34-.41l34.12-57.13a20.43 20.43 0 0 1 1.49 1.85ZM368.58 71l-30.83 51.61h-1.85l-.7-.05 32.11-53.75c.45.73.88 1.45 1.27 2.19ZM370.83 76.21l-27.47 46a23.8 23.8 0 0 1-2.8.35l29.26-49a21.62 21.62 0 0 1 1.01 2.65ZM372.35 82.52l-22.71 38a26.59 26.59 0 0 1-3.18 1l25.27-42.3a30 30 0 0 1 .62 3.3ZM372.52 91.35l-15 25.09a29 29 0 0 1-4 2.41l19.22-32.17v2.57c-.09.75-.15 1.42-.22 2.1ZM363.48 111.25 370.8 99a34.74 34.74 0 0 1-7.32 12.25Z"/><ellipse cx="357.55" cy="360.67" fill="none" stroke="#ffcd52" stroke-miterlimit="10" rx="19.68" ry="34.1"/><path fill="#ffcd52" d="M340.67 375.67c-2.81-6.47-.69-10.43-.69-15 0-9.63 3.22-20.54 9-27.38a52.55 52.55 0 0 1 2.45 15.14c-.04 9.63-5.02 20.39-10.76 27.24Z"/><ellipse cx="327.27" cy="348.49" fill="#fff" rx="19.68" ry="34.1"/><path fill="#ffcd52" d="M375.58 361.74c0 3.8 1.55 6.84-.56 12-9-7.21-15.83-19.31-15.83-31.78a55.55 55.55 0 0 1 1.9-13c9.04 7.14 14.49 20.31 14.49 32.78Z"/><ellipse cx="382.38" cy="339.99" fill="#fff" rx="19.68" ry="34.1"/><path fill="none" stroke="#ffcd52" stroke-linecap="round" stroke-linejoin="round" d="M357.55 394.77v-51.14M357.55 363.66l7.97-9.11M357.55 374.54l11.48-13.13M357.55 385.75l11.86-13.56M357.55 363.68l-9.67-11.05M357.55 374.56 345.69 361M357.55 385.77l-11.86-13.56"/><ellipse cx="382.38" cy="339.99" fill="none" stroke="#008ef8" stroke-miterlimit="10" rx="19.68" ry="34.1"/><path fill="none" stroke="#008ef8" stroke-linecap="round" stroke-linejoin="round" d="M382.38 322.95v71.95M382.38 342.98l9.65-11.03M382.38 353.86l11.86-13.56M382.38 365.07l11.86-13.56M382.38 343l-9.66-11.05M382.38 353.88l-11.86-13.56M382.38 365.09l-11.86-13.56"/><ellipse cx="327.27" cy="348.49" fill="none" stroke="#ff5061" stroke-linecap="round" stroke-linejoin="round" rx="19.68" ry="34.1"/><path fill="none" stroke="#ff5061" stroke-linecap="round" stroke-linejoin="round" d="M327.27 331.46V394.9M327.27 351.48l9.64-11.03M327.27 362.36l11.86-13.56M327.27 373.58l11.86-13.57M327.27 351.51l-9.67-11.06M327.27 362.38l-11.86-13.56M327.27 373.6l-11.86-13.56"/><ellipse cx="56.76" cy="360.67" fill="none" stroke="#ff5061" stroke-linecap="round" stroke-linejoin="round" rx="19.68" ry="34.1"/><path fill="#ff5061" d="M73.64 375.67c2.8-6.47.69-10.43.69-15 0-9.63-3.22-20.54-9-27.38a52.56 52.56 0 0 0-2.46 15.14c.04 9.63 5.03 20.39 10.77 27.24Z"/><ellipse cx="87.04" cy="348.49" fill="#fff" rx="19.68" ry="34.1"/><path fill="#ff5061" d="M38.73 361.74c0 3.8-1.55 6.84.56 12 9-7.21 15.83-19.31 15.83-31.78a55.55 55.55 0 0 0-1.9-13c-9.05 7.14-14.49 20.31-14.49 32.78Z"/><ellipse cx="31.93" cy="339.99" fill="#fff" rx="19.68" ry="34.1"/><path fill="none" stroke="#ff5061" stroke-linecap="round" stroke-linejoin="round" d="M56.76 394.77v-51.14M56.76 363.66l-7.97-9.11M56.76 374.54l-11.48-13.13M56.76 385.75 44.9 372.19M56.76 363.68l9.67-11.05M56.76 374.56 68.62 361M56.76 385.77l11.86-13.56"/><ellipse cx="31.93" cy="339.99" fill="none" stroke="#439916" stroke-linecap="round" stroke-linejoin="round" rx="19.68" ry="34.1"/><path fill="none" stroke="#439916" stroke-linecap="round" stroke-linejoin="round" d="M31.93 322.95v71.95M31.93 342.98l-9.65-11.03M31.93 353.86 20.07 340.3M31.93 365.07l-11.86-13.56M31.93 343l9.66-11.05M31.93 353.88l11.86-13.56M31.93 365.09l11.86-13.56"/><ellipse cx="87.04" cy="348.49" fill="none" stroke="#ffcd52" stroke-linecap="round" stroke-linejoin="round" rx="19.68" ry="34.1"/><path fill="none" stroke="#ffcd52" stroke-linecap="round" stroke-linejoin="round" d="M87.04 331.46V394.9M87.04 351.48l-9.64-11.03M87.04 362.36 75.18 348.8M87.04 373.58l-11.86-13.57M87.04 351.51l9.67-11.06M87.04 362.38l11.86-13.56M87.04 373.6l11.86-13.56"/><path fill="#ff5061" d="M80.14 188.51h229.39v48.34a25 25 0 0 1-25 25H125.68a45.54 45.54 0 0 1-45.54-45.54v-27.8Z"/><path fill="#ff5061" d="M68.24 178.4s14.84-15.9 2-45.24c0 0 24.6-13.86 18.24-39 0 0 30.65 0 39.61-26.41 0 0 25.44 23.48 55.27 3.42 0 0 2.45 28.86 29.84 26.9 0 0-78.26 96.35-7.83 90.49l-125.21 2Z"/><path fill="none" stroke="#ffcd52" stroke-linecap="round" stroke-linejoin="round" stroke-width="5" d="M119.11 370.12A86.08 86.08 0 0 1 205.19 284h7.17a86.08 86.08 0 0 1 86.08 86.08"/><path fill="#d12060" d="M128.07 67.7c1.26 7.74 2.64 15.39 4.19 23 .36 1.9.83 3.78 1.21 5.68s.84 3.78 1.31 5.66c.84 3.78 1.85 7.51 2.87 11.23l1.6 5.57c.5 1.87 1.21 3.66 1.78 5.5l.88 2.76c.3.92.66 1.81 1 2.72l2 5.43a187.38 187.38 0 0 0 10.06 21 90.1 90.1 0 0 1-12.91-19.73c-.87-1.77-1.64-3.59-2.42-5.4-.38-.91-.8-1.81-1.15-2.73l-1-2.77c-.35-.93-.67-1.86-1-2.79s-.66-1.86-.93-2.81l-1.73-5.66c-.95-3.82-2-7.63-2.7-11.49-.39-1.93-.76-3.87-1.05-5.81s-.64-3.88-.85-5.84a133.83 133.83 0 0 1-1.16-23.52ZM183.34 71.12q-4 9.75-7.3 19.57c-2.2 6.56-4.11 13.2-5.66 19.9a145.46 145.46 0 0 0-3.25 20.32l-.19 2.58-.11 2.57c-.05.86-.07 1.73-.07 2.59v2.59c0 3.46.3 6.91.6 10.42a58.56 58.56 0 0 1-2.56-10.26 72.24 72.24 0 0 1-.79-10.61 93 93 0 0 1 2.48-21.1 116.44 116.44 0 0 1 6.65-20.11 98 98 0 0 1 10.2-18.46ZM88.46 94.11c3.7 6.44 7.74 12.56 12 18.52l1.62 2.21c.53.75 1.06 1.49 1.63 2.21 1.11 1.45 2.2 2.92 3.34 4.34s2.29 2.84 3.43 4.27 2.39 2.76 3.58 4.14a209.23 209.23 0 0 0 15.17 15.79c2.61 2.57 5.4 4.94 8.15 7.38 1.34 1.28 2.81 2.38 4.22 3.57s2.85 2.36 4.24 3.6c-1.64-.86-3.25-1.77-4.87-2.69s-3.24-1.85-4.77-2.91l-4.6-3.17c-.38-.27-.78-.53-1.15-.81l-1.09-.87-2.18-1.75c-3-2.25-5.66-4.86-8.43-7.38-.7-.62-1.33-1.31-2-2l-1.94-2-1.93-2c-.64-.67-1.24-1.4-1.86-2.1-1.19-1.43-2.43-2.84-3.59-4.3s-2.29-3-3.41-4.45c-2.14-3.06-4.3-6.11-6.18-9.33a92.29 92.29 0 0 1-9.38-20.27ZM70.22 133.16a90.53 90.53 0 0 0 8 6c1.35 1 2.75 1.86 4.16 2.74s2.83 1.73 4.23 2.6c5.7 3.37 11.61 6.34 17.6 9.14l4.53 2c1.5.69 3.06 1.25 4.58 1.91 3 1.37 6.18 2.4 9.27 3.65 1.54.65 3.13 1.12 4.7 1.7l4.71 1.7c3.16 1.09 6.35 2.09 9.51 3.31-3.35-.35-6.69-.85-10-1.41-3.28-.75-6.62-1.37-9.86-2.33s-6.5-1.9-9.67-3.09c-1.59-.59-3.2-1.14-4.76-1.8l-4.66-2a109.6 109.6 0 0 1-17.63-10.17 81.12 81.12 0 0 1-7.93-6.4 48.6 48.6 0 0 1-6.78-7.55ZM68.24 178.4c6.26.11 12.44.4 18.62.67s12.33.52 18.47.66 12.28.15 18.37-.2a78.57 78.57 0 0 0 9.08-1 30.47 30.47 0 0 0 8.74-2.72 23.42 23.42 0 0 1-8.24 4.62 53.7 53.7 0 0 1-9.23 2.22 105.89 105.89 0 0 1-18.8 1.1 159.68 159.68 0 0 1-18.68-1.56 129.59 129.59 0 0 1-18.33-3.79Z"/><path fill="#ffcd52" d="M126.2 261.28v22.77a2 2 0 0 0 2 2h155.2a2 2 0 0 0 2-2l.3-22.8v-1l.48-37A79.29 79.29 0 0 1 308 169.76l4.08-4.31a2 2 0 0 0-1.48-3.44h-42.4a2.06 2.06 0 0 0-1.81 1.09l-12.8 24.46a2.17 2.17 0 0 0-.22.95h4.34l11.72-22.42h36.45l-.83.87a83.43 83.43 0 0 0-22.84 56.3l-.5 38v.5l-.27 20.24H130.28v-20.27Z"/><path fill="none" stroke="#545454" stroke-linecap="round" stroke-linejoin="round" d="M12.24 394.9h389.82"/><circle cx="119.11" cy="366.46" r="28.44" fill="#545454"/><circle cx="119.11" cy="366.46" r="23.32" fill="#898989"/><circle cx="119.11" cy="366.46" r="10.47" fill="#545454"/><circle cx="298.44" cy="366.46" r="28.44" fill="#545454"/><circle cx="298.44" cy="366.46" r="23.32" fill="#898989"/><circle cx="298.44" cy="366.46" r="10.47" fill="#545454"/></g></g></svg>