<svg width="187" height="46" viewBox="0 0 187 46" fill="none" xmlns="http://www.w3.org/2000/svg">
<path d="M171.864 32.2793C171.864 34.2471 173.46 35.8424 175.427 35.8424C177.395 35.8424 178.991 34.2471 178.991 32.2793L171.864 32.2793ZM164.613 32.2793C164.613 34.2471 166.208 35.8424 168.176 35.8424C170.144 35.8424 171.739 34.2471 171.739 32.2793L164.613 32.2793ZM179.116 32.2793C179.116 34.2471 180.711 35.8424 182.679 35.8424C184.647 35.8424 186.242 34.2471 186.242 32.2793L179.116 32.2793ZM175.427 11.8254L177.588 8.99222L175.427 7.3444L173.267 8.99222L175.427 11.8254ZM166.015 14.5223C164.451 15.7157 164.15 17.9515 165.343 19.5162C166.536 21.081 168.772 21.3821 170.337 20.1888L166.015 14.5223ZM180.518 20.1888C182.083 21.3821 184.319 21.081 185.512 19.5162C186.705 17.9515 186.404 15.7157 184.84 14.5223L180.518 20.1888ZM178.991 32.2793L178.991 26.5147L171.864 26.5147L171.864 32.2793L178.991 32.2793ZM171.739 32.2793L171.739 27.2806L164.613 27.2806L164.613 32.2793L171.739 32.2793ZM179.116 27.2806L179.116 32.2793L186.242 32.2793L186.242 27.2806L179.116 27.2806ZM168.942 30.0778L175.427 30.0778L175.427 22.9515L168.942 22.9515L168.942 30.0778ZM175.427 30.0778L181.913 30.0778L181.913 22.9515L175.427 22.9515L175.427 30.0778ZM178.991 26.5147L178.991 11.8254L171.864 11.8254L171.864 26.5147L178.991 26.5147ZM173.267 8.99222L166.015 14.5223L170.337 20.1888L177.588 14.6587L173.267 8.99222ZM184.84 14.5223L177.588 8.99222L173.267 14.6587L180.518 20.1888L184.84 14.5223ZM186.242 27.2806C186.242 24.8898 184.304 22.9515 181.913 22.9515L181.913 30.0778C180.368 30.0778 179.116 28.8255 179.116 27.2806L186.242 27.2806ZM171.739 27.2806C171.739 28.8255 170.487 30.0778 168.942 30.0778L168.942 22.9515C166.551 22.9515 164.613 24.8897 164.613 27.2806L171.739 27.2806Z" fill="#F4CE00"/>
<path d="M175.31 31.0667L175.31 26.6604M175.31 26.6604L168.065 26.6604L168.065 31.0667M175.31 26.6604L182.555 26.6604L182.555 31.0667M175.31 26.6604L175.31 11.8259M175.31 11.8259L168.065 17.4806M175.31 11.8259L182.555 17.4806" stroke="black" stroke-width="1.87502"/>
<circle cx="182.68" cy="31.922" r="1.07238" fill="white" stroke="black" stroke-width="1.12501"/>
<circle cx="168.178" cy="31.922" r="1.07238" fill="white" stroke="black" stroke-width="1.12501"/>
<circle cx="175.428" cy="31.922" r="1.07238" fill="white" stroke="black" stroke-width="1.12501"/>
<circle cx="182.68" cy="26.6407" r="1.07238" fill="white" stroke="black" stroke-width="1.12501"/>
<circle cx="175.312" cy="11.948" r="1.07238" fill="white" stroke="black" stroke-width="1.12501"/>
<circle cx="167.949" cy="17.4115" r="1.07238" fill="white" stroke="black" stroke-width="1.12501"/>
<circle cx="182.677" cy="17.4115" r="1.07238" fill="white" stroke="black" stroke-width="1.12501"/>
<circle cx="168.178" cy="26.6407" r="1.07238" fill="white" stroke="black" stroke-width="1.12501"/>
<path d="M34.6103 20.1479V33H30.2903L30.1103 30.192C28.7422 32.304 26.4742 33.36 23.3062 33.36C21.1462 33.36 19.2261 32.892 17.5461 31.956C15.8901 30.996 14.5941 29.604 13.6581 27.7799C12.7221 25.9319 12.2541 23.7239 12.2541 21.1559C12.2541 18.6118 12.7341 16.4278 13.6941 14.6038C14.6541 12.7558 16.0221 11.3398 17.7981 10.3558C19.5741 9.37175 21.6742 8.87974 24.0982 8.87974C26.8102 8.87974 28.9942 9.35975 30.6503 10.3198C32.3063 11.2798 33.6143 12.8278 34.5743 14.9638L28.8502 17.2318C28.5622 16.0558 28.0222 15.1798 27.2302 14.6038C26.4382 14.0278 25.4542 13.7398 24.2782 13.7398C22.4542 13.7398 21.0502 14.3638 20.0661 15.6118C19.1061 16.8598 18.6261 18.6958 18.6261 21.1199C18.6261 26.1119 20.5702 28.608 24.4582 28.608C25.9222 28.608 27.0982 28.2719 27.9862 27.5999C28.8982 26.9279 29.3542 25.9559 29.3542 24.6839V24.3239H23.4502V20.1479H34.6103ZM47.5221 14.6398C50.5221 14.6398 52.8501 15.4678 54.5061 17.1238C56.1862 18.7558 57.0262 21.0479 57.0262 23.9999C57.0262 26.9519 56.1862 29.256 54.5061 30.912C52.8501 32.544 50.5221 33.36 47.5221 33.36C44.522 33.36 42.182 32.544 40.502 30.912C38.846 29.256 38.018 26.9519 38.018 23.9999C38.018 21.0479 38.846 18.7558 40.502 17.1238C42.182 15.4678 44.522 14.6398 47.5221 14.6398ZM47.5221 18.9958C46.3701 18.9958 45.518 19.3919 44.966 20.1839C44.414 20.9759 44.138 22.2479 44.138 23.9999C44.138 25.7519 44.414 27.0239 44.966 27.8159C45.518 28.608 46.3701 29.004 47.5221 29.004C48.6741 29.004 49.5261 28.608 50.0781 27.8159C50.6301 27.0239 50.9061 25.7519 50.9061 23.9999C50.9061 22.2479 50.6301 20.9759 50.0781 20.1839C49.5261 19.3919 48.6741 18.9958 47.5221 18.9958ZM63.5985 12.9118C62.3505 12.9118 61.4385 12.6838 60.8625 12.2278C60.3105 11.7478 60.0344 11.0038 60.0344 9.99575C60.0344 8.96374 60.3105 8.21973 60.8625 7.76373C61.4385 7.28372 62.3505 7.04372 63.5985 7.04372C64.8465 7.04372 65.7465 7.28372 66.2985 7.76373C66.8745 8.21973 67.1625 8.96374 67.1625 9.99575C67.1625 11.0038 66.8745 11.7478 66.2985 12.2278C65.7465 12.6838 64.8465 12.9118 63.5985 12.9118ZM66.6585 33H60.5385V14.9998H66.6585V33ZM82.8233 14.6398C84.7193 14.6398 86.2313 15.1918 87.3593 16.2958C88.4873 17.3998 89.0513 18.9718 89.0513 21.0119V33H82.9313V22.7039C82.9313 21.4799 82.7033 20.6159 82.2473 20.1119C81.8152 19.5839 81.1912 19.3199 80.3752 19.3199C79.4152 19.3199 78.6352 19.6679 78.0352 20.3639C77.4352 21.0359 77.1352 22.0799 77.1352 23.4959V33H71.0151V14.9998H76.4872L76.6672 18.4558C77.2432 17.1838 78.0592 16.2358 79.1152 15.6118C80.1712 14.9638 81.4072 14.6398 82.8233 14.6398ZM104.752 29.004C106.84 29.004 108.448 29.46 109.576 30.372C110.728 31.284 111.304 32.628 111.304 34.404C111.304 36.444 110.392 38.0041 108.568 39.0841C106.768 40.1881 104.308 40.7401 101.188 40.7401C98.0436 40.7401 95.7156 40.3681 94.2036 39.6241C92.7156 38.8801 91.9716 37.8361 91.9716 36.492C91.9716 35.7 92.2476 35.004 92.7996 34.404C93.3516 33.804 94.1916 33.372 95.3196 33.108C93.4716 32.316 92.5476 31.068 92.5476 29.364C92.5476 28.524 92.8116 27.7799 93.3396 27.1319C93.8676 26.4839 94.5876 26.0039 95.4996 25.6919C93.5316 24.6359 92.5476 22.9919 92.5476 20.7599C92.5476 18.8158 93.3156 17.3158 94.8516 16.2598C96.3876 15.1798 98.5476 14.6398 101.332 14.6398C102.628 14.6398 103.828 14.7718 104.932 15.0358C105.172 13.5958 105.712 12.4198 106.552 11.5078C107.392 10.5958 108.556 10.1398 110.044 10.1398L110.62 10.1758L111.304 14.2438C110.824 14.1958 110.488 14.1718 110.296 14.1718C109.48 14.1718 108.796 14.3158 108.244 14.6038C107.716 14.8918 107.332 15.2878 107.092 15.7918C109.108 16.8478 110.116 18.5038 110.116 20.7599C110.116 22.7039 109.348 24.2039 107.812 25.2599C106.276 26.3159 104.116 26.8439 101.332 26.8439C100.036 26.8439 98.8836 26.7359 97.8756 26.5199C97.1316 26.7119 96.7596 27.1319 96.7596 27.7799C96.7596 28.596 97.3836 29.004 98.6316 29.004H104.752ZM101.332 18.1318C100.54 18.1318 99.8917 18.3718 99.3877 18.8518C98.9076 19.3319 98.6676 19.9679 98.6676 20.7599C98.6676 21.5519 98.9076 22.1879 99.3877 22.6679C99.8917 23.1239 100.54 23.3519 101.332 23.3519C102.124 23.3519 102.76 23.1239 103.24 22.6679C103.744 22.1879 103.996 21.5519 103.996 20.7599C103.996 19.9679 103.744 19.3319 103.24 18.8518C102.76 18.3718 102.124 18.1318 101.332 18.1318ZM101.62 36.78C103.204 36.78 104.404 36.612 105.22 36.276C106.06 35.964 106.48 35.544 106.48 35.016C106.48 34.632 106.312 34.344 105.976 34.152C105.64 33.96 105.076 33.864 104.284 33.864H99.3517C98.3676 33.864 97.6596 33.96 97.2276 34.152C96.8196 34.368 96.6156 34.692 96.6156 35.124C96.6156 36.228 98.2836 36.78 101.62 36.78ZM135.835 9.23974V22.7759C135.835 26.3279 134.875 28.98 132.955 30.732C131.059 32.484 128.191 33.36 124.351 33.36C120.511 33.36 117.63 32.484 115.71 30.732C113.814 28.98 112.866 26.3279 112.866 22.7759V9.23974H121.291V23.4239C121.291 24.6239 121.555 25.5359 122.083 26.1599C122.611 26.7599 123.367 27.0599 124.351 27.0599C125.359 27.0599 126.127 26.7599 126.655 26.1599C127.183 25.5359 127.447 24.6239 127.447 23.4239V9.23974H135.835ZM151.564 9.23974C153.7 9.23974 155.512 9.56375 157 10.2118C158.488 10.8598 159.616 11.8078 160.384 13.0558C161.152 14.3038 161.536 15.8278 161.536 17.6278C161.536 19.4279 161.152 20.9519 160.384 22.1999C159.616 23.4479 158.488 24.3959 157 25.0439C155.512 25.6919 153.7 26.0159 151.564 26.0159H147.352V33H138.964V9.23974H151.564ZM150.196 20.0759C151.108 20.0759 151.828 19.8839 152.356 19.4999C152.884 19.0919 153.148 18.4678 153.148 17.6278C153.148 16.7878 152.884 16.1758 152.356 15.7918C151.828 15.3838 151.108 15.1798 150.196 15.1798H147.352V20.0759H150.196Z" fill="white"/>
</svg>
